<svg version="1.1" xmlns="http://www.w3.org/2000/svg" xmlns:xlink="http://www.w3.org/1999/xlink" width="761.26126" height="513.51351" viewBox="0,0,761.26126,513.51351"><g transform="translate(140.63063,76.75673)"><g data-paper-data="{&quot;isPaintingLayer&quot;:true}" fill-rule="nonzero" stroke-linecap="butt" stroke-linejoin="miter" stroke-miterlimit="10" stroke-dasharray="" stroke-dashoffset="0" style="mix-blend-mode: normal"><path d="M-58.00082,428.58941v-497.17876h596.00165v497.17876z" fill="#000000" stroke="#000000" stroke-width="2"/><g><path d="M280.12748,94.37454c16.51919,-30.34835 58.49622,-107.46677 68.37408,-125.61395c3.99598,-7.34124 14.86283,-10.81147 21.54511,-7.17418c17.28508,9.4086 94.48281,51.42881 126.13735,68.65897c8.41234,4.579 9.66724,14.64732 5.67128,21.98854c-9.82158,18.0438 -51.94089,95.42359 -68.65897,126.13735c-4.26553,7.83646 -12.52441,9.56124 -19.43886,5.79757c-17.52205,-9.53759 -95.37519,-51.91454 -127.18413,-69.22876c-8.41551,-4.58072 -10.54246,-13.03941 -6.44583,-20.56557z" fill="#000000" stroke="#ffffff" stroke-width="2.5"/><text transform="translate(354.4451,-20.50996) rotate(28.56004) scale(0.38636,0.38636)" font-size="40" xml:space="preserve" data-paper-data="{&quot;index&quot;:null}" fill="#ffffff" fill-rule="nonzero" stroke="none" stroke-width="1" stroke-linecap="butt" stroke-linejoin="miter" stroke-miterlimit="10" stroke-dasharray="" stroke-dashoffset="0" font-family="YouYuan" font-weight="normal" text-anchor="start" style="mix-blend-mode: normal"><tspan x="0" dy="0">2.形状迷宫</tspan></text><path d="M467.08514,68.12621l-27.38825,50.31655c-2.09239,3.84405 -6.91985,5.26961 -10.76659,3.17575l-99.11132,-53.94818c-3.84271,-2.09166 -5.26888,-6.92119 -3.17649,-10.76524l27.38899,-50.31789c2.09239,-3.84405 6.92253,-5.26815 10.76524,-3.17649l99.11131,53.94818c3.84674,2.09385 5.2695,6.92328 3.1771,10.76733z" fill-opacity="0.50196" fill="#000000" stroke="#ffffff" stroke-width="2.5"/><text transform="translate(302.47995,64.77032) rotate(28.56036) scale(0.22728,0.22728)" font-size="40" xml:space="preserve" data-paper-data="{&quot;index&quot;:null}" fill="#ffffff" fill-rule="nonzero" stroke="none" stroke-width="1" stroke-linecap="butt" stroke-linejoin="miter" stroke-miterlimit="10" stroke-dasharray="" stroke-dashoffset="0" font-family="YouYuan" font-weight="normal" text-anchor="start" style="mix-blend-mode: normal"><tspan x="0" dy="0">你需要控制几何形状角色穿越一个迷宫，</tspan><tspan x="0" dy="48px">迷宫的墙壁和路径都由不同的几何形状构</tspan><tspan x="0" dy="48px">成。</tspan></text><g stroke-width="0.5"><path d="M383.47942,32.4106l13.18875,7.17889l-7.80653,-1.42742z" fill="#000000" stroke="#ffffff"/><path d="M397.26837,40.11997l-13.7242,6.0931l5.88476,-5.32437z" fill="#000000" stroke="#ffffff"/><path d="M389.93268,45.02137l-11.54764,9.59851l4.2134,-6.72506z" fill="#000000" stroke="#ffffff"/><path d="M407.88464,54.32754l-14.30747,4.55807l6.43096,-4.64995z" fill="#000000" stroke="#ffffff"/><path d="M408.41571,55.25883l-0.88016,14.99017l-2.03229,-7.67132z" fill="#000000" stroke="#ffffff"/><path d="M382.48919,65.76631l11.48673,-9.67132l-4.17081,6.75157z" fill="#000000" stroke="#ffffff"/><path d="M391.76497,73.11141l13.24526,-7.07409l-5.48238,5.73784z" fill="#000000" stroke="#ffffff"/><path d="M398.1771,73.91393l-13.70049,6.14624l5.86408,-5.34714z" fill="#000000" stroke="#ffffff"/><path d="M382.83474,80.1152l-7.18619,-13.18477l5.78414,5.43352z" fill="#000000" stroke="#ffffff"/><path d="M368.65571,59.69493l7.66071,12.91484l-5.97783,-5.21966z" fill="#000000" stroke="#ffffff"/><path d="M369.5669,57.66545l10.88126,-10.34784l-3.75515,6.9913z" fill="#000000" stroke="#ffffff"/><path d="M406.38615,35.88477l1.9843,14.88429l-3.45296,-7.14538z" fill="#000000" stroke="#ffffff"/><path d="M373.76346,32.63316l5.64689,-13.91375l-0.53859,7.91765z" fill="#000000" stroke="#ffffff"/><path d="M394.81891,29.29624l-13.02404,-7.47356l7.77246,1.60255z" fill="#000000" stroke="#ffffff"/><path d="M393.31538,25.76627l12.81291,7.83l-7.7253,-1.81635z" fill="#000000" stroke="#ffffff"/><path d="M378.49207,30.16705l-5.41318,14.00633l0.40596,-7.92556z" fill="#000000" stroke="#ffffff"/><path d="M362.37453,52.88651l7.39718,-13.06757l-1.55703,7.78171z" fill="#000000" stroke="#ffffff"/><path d="M362.43558,55.72755l-4.3563,14.3702l-0.18471,-7.9338z" fill="#000000" stroke="#ffffff"/><path d="M371.65189,82.0961l-10.90235,-10.32562l7.17798,3.38466z" fill="#000000" stroke="#ffffff"/><path d="M371.42564,78.19346l12.4176,8.44292l-7.62798,-2.18932z" fill="#000000" stroke="#ffffff"/><path d="M396.98005,93.12017l-14.20515,-4.8676l7.93533,0.09924z" fill="#000000" stroke="#ffffff"/><path d="M417.95046,83.98898l-0.07184,15.0158l-2.44234,-7.55078z" fill="#000000" stroke="#ffffff"/><path d="M417.47883,101.63418l-12.54331,-8.25499l7.66009,2.07422z" fill="#000000" stroke="#ffffff"/><path d="M391.70257,87.09393l14.27683,4.65317l-7.93593,0.02025z" fill="#000000" stroke="#ffffff"/><path d="M421.82807,71.06098l-0.07184,15.0158l-2.44234,-7.55078z" fill="#000000" stroke="#ffffff"/><path d="M420.49207,71.13516l3.03553,-14.70595l0.90324,7.88438z" fill="#000000" stroke="#ffffff"/><path d="M410.25748,45.71871l13.21832,7.12431l-7.81236,-1.39514z" fill="#000000" stroke="#ffffff"/><path d="M411.83998,56.33062c0.34746,-0.63835 1.14662,-0.87416 1.78497,-0.52669c0.63835,0.34746 0.87416,1.14663 0.5267,1.78498c-0.34746,0.63835 -1.14663,0.87416 -1.78498,0.52669c-0.63835,-0.34746 -0.87415,-1.14663 -0.52669,-1.78498z" fill="#ff0000" stroke="none"/></g></g><path d="M74.34637,69.53062h87.37129l-43.86613,14.42097z" fill="#000000" stroke="#ffffff" stroke-width="2"/><path d="M166.26071,70.57205l-53.18834,69.31625l15.26313,-43.58025z" fill="#000000" stroke="#ffffff" stroke-width="2"/><path d="M142.40595,116.02683l-32.31375,81.17613l2.82519,-46.08926z" fill="#000000" stroke="#ffffff" stroke-width="2"/><path d="M260.03725,113.64826l-60.4392,63.09394l19.93055,-41.65303z" fill="#000000" stroke="#ffffff" stroke-width="2"/><path d="M265.34193,116.93032l37.20086,79.05592l-31.72576,-33.55112z" fill="#000000" stroke="#ffffff" stroke-width="2"/><path d="M162.07315,242.7502l31.79995,-81.37878l-2.53378,46.1062z" fill="#000000" stroke="#ffffff" stroke-width="2"/><path d="M229.9095,254.48458l48.01177,-72.99735l-12.05657,44.57399z" fill="#000000" stroke="#ffffff" stroke-width="2"/><path d="M264.91118,240.74883l-52.9193,69.52187l15.09411,-43.63908z" fill="#000000" stroke="#ffffff" stroke-width="2"/><path d="M203.75415,315.11924l-73.40196,-47.39087l44.67466,11.67805z" fill="#000000" stroke="#ffffff" stroke-width="2"/><path d="M74.4878,250.20367l75.07615,44.69133l-45.06964,-10.04637z" fill="#000000" stroke="#ffffff" stroke-width="2"/><path d="M73.49889,237.29724l26.8237,-83.15185l0.25728,46.17505z" fill="#000000" stroke="#ffffff" stroke-width="2"/><path d="M201.07596,23.56452l51.54522,70.54667l-37.52309,-26.91133z" fill="#000000" stroke="#ffffff" stroke-width="2"/><path d="M25.31184,97.69543l-9.84604,-86.81473l19.27247,41.96157z" fill="#000000" stroke="#ffffff" stroke-width="2"/><path d="M123.63368,22.07094l-87.34921,-1.96414l44.17923,-13.4312z" fill="#000000" stroke="#ffffff" stroke-width="2"/><path d="M106.13037,8.21345l87.26179,4.37297l-44.53293,12.20738z" fill="#000000" stroke="#ffffff" stroke-width="2"/><path d="M42.6174,71.93847l11.29803,86.63773l-19.97225,-41.63305z" fill="#000000" stroke="#ffffff" stroke-width="2"/><path d="M23.44833,232.88177l1.45272,-87.35921l13.68961,44.09984z" fill="#000000" stroke="#ffffff" stroke-width="2"/><path d="M31.66338,247.23112l17.71138,85.55728l-23.01384,-40.03205z" fill="#000000" stroke="#ffffff" stroke-width="2"/><path d="M152.11441,356.35061l-84.44,-22.44166l46.09851,-2.66996z" fill="#000000" stroke="#ffffff" stroke-width="2"/><path d="M140.10195,337.03545l86.94651,8.605l-45.07315,10.03059z" fill="#000000" stroke="#ffffff" stroke-width="2"/><path d="M312.22066,342.23263l-86.13613,14.63926l40.82973,-21.56698z" fill="#000000" stroke="#ffffff" stroke-width="2"/><path d="M393.98969,237.23303l41.40315,76.93842l-33.48609,-31.79439z" fill="#000000" stroke="#ffffff" stroke-width="2"/><path d="M440.66397,328.72112l-87.06622,-7.2949l44.91701,-10.7081z" fill="#000000" stroke="#ffffff" stroke-width="2"/><path d="M268.48652,326.11602l85.90595,-15.93452l-40.50038,22.17929z" fill="#000000" stroke="#ffffff" stroke-width="2"/><path d="M377.84371,160.37764l41.40315,76.93842l-33.48609,-31.79439z" fill="#000000" stroke="#ffffff" stroke-width="2"/><path d="M371.22244,164.47318l-25.39522,-83.59919l26.54844,37.78071z" fill="#000000" stroke="#ffffff" stroke-width="2"/><path d="M248.21609,63.05203l87.37054,-0.36124l-43.80613,14.60221z" fill="#000000" stroke="#ffffff" stroke-width="2"/><path d="M285.8232,112.88223c0,-4.22888 3.42818,-7.65706 7.65706,-7.65706c4.22888,0 7.65706,3.42818 7.65706,7.65706c0,4.22888 -3.42818,7.65706 -7.65706,7.65706c-4.22888,0 -7.65706,-3.42818 -7.65706,-7.65706z" fill="#ff0000" stroke="none" stroke-width="0.5"/><path d="M287.92773,122.34216v-12.6843h12.14455v12.6843z" fill="#000000" stroke="#ffffff" stroke-width="1.5"/><path d="M-140.63063,436.75679v-513.51351h761.26126v513.51351z" fill-opacity="0.50196" fill="#000000" stroke="none" stroke-width="NaN"/><text transform="translate(37.2052,193.5197) scale(1.12664,1.12664)" font-size="40" xml:space="preserve" data-paper-data="{&quot;index&quot;:null}" fill="#ffffff" fill-rule="nonzero" stroke="none" stroke-width="1" stroke-linecap="butt" stroke-linejoin="miter" stroke-miterlimit="10" stroke-dasharray="" stroke-dashoffset="0" font-family="YouYuan" font-weight="normal" text-anchor="start" style="mix-blend-mode: normal"><tspan x="0" dy="0">《形状迷宫》已通关</tspan></text><text transform="translate(2.20519,352.51971) scale(0.54331,0.54331)" font-size="40" xml:space="preserve" data-paper-data="{&quot;index&quot;:null}" fill="#ffffff" fill-rule="nonzero" stroke="none" stroke-width="1" stroke-linecap="butt" stroke-linejoin="miter" stroke-miterlimit="10" stroke-dasharray="" stroke-dashoffset="0" font-family="YouYuan" font-weight="normal" text-anchor="start" style="mix-blend-mode: normal"><tspan x="0" dy="0">即将返回主页</tspan></text></g></g></svg>