<svg version="1.1" xmlns="http://www.w3.org/2000/svg" xmlns:xlink="http://www.w3.org/1999/xlink" width="644.14414" height="456.45646" viewBox="0,0,644.14414,456.45646"><g transform="translate(82.07207,48.22823)"><g data-paper-data="{&quot;isPaintingLayer&quot;:true}" fill-rule="nonzero" stroke-linejoin="miter" stroke-miterlimit="10" stroke-dasharray="" stroke-dashoffset="0" style="mix-blend-mode: normal"><path d="M-82.07207,408.22823v-456.45646h644.14414v456.45646z" fill="#000000" stroke="none" stroke-width="NaN" stroke-linecap="butt"/><g><path d="M45.25239,79.04502l32.74216,25.23874" fill="none" stroke="#ff0000" stroke-width="5" stroke-linecap="round"/><path d="M72.53752,79.04502l-21.14598,24.55662" fill="none" stroke="#ff0000" stroke-width="5" stroke-linecap="round"/><path d="M371.30969,276.86221c0,0 -64.82037,4.77283 -88.36171,-30.9036c-8.67559,-13.14768 69.35469,-44.71116 71.52434,-71.28663c2.15901,-26.44517 -71.52785,-47.92444 -86.01627,-52.21078c-12.905,-3.81789 -84.53005,128.94812 -107.62968,147.14106c-16.46125,12.96465 -53.44453,-19.33343 -50.87757,-45.89034c1.54071,-15.93966 -61.04339,-43.01723 -63.63226,-44.57856c-19.77785,-11.92788 34.40652,-53.70362 34.40652,-53.70362" fill="none" stroke="#ff0000" stroke-width="5" stroke-linecap="round"/><text transform="translate(390.47712,296.31462) scale(1.0423,1.0423)" font-size="40" xml:space="preserve" fill="#ff0000" fill-rule="nonzero" stroke="none" stroke-width="1" stroke-linecap="butt" stroke-linejoin="miter" stroke-miterlimit="10" stroke-dasharray="" stroke-dashoffset="0" font-family="Sans Serif" font-weight="normal" text-anchor="start" style="mix-blend-mode: normal"><tspan x="0" dy="0">?</tspan></text><path d="M487.48901,-7.88778c8.55622,1.92234 -10.36511,368.69414 34.43153,382.73923c19.1915,6.01711 -54.30557,40.20713 -99.57883,7.77689c-2.77416,-1.98719 -300.64592,37.64692 -420.19546,-21.58533c-53.64618,-26.57965 8.55481,-242.46585 8.61009,-245.14292c0.06077,-2.94249 41.17739,-1.04828 47.38396,6.72182c2.30339,2.88365 -7.87615,6.45816 -6.44806,12.5593c1.87847,8.02527 -18.83827,22.85745 -22.64463,34.41702c-4.94561,15.0194 7.39031,26.39175 19.10106,29.43481c10.95367,2.84632 32.50606,8.21383 43.75446,24.91722c15.37976,22.83828 20.98593,58.56537 41.01196,61.79249c5.8421,0.94144 16.41659,3.84281 29.05123,-2.7004c13.05607,-6.76147 28.31202,-23.23798 42.81917,-39.0567c17.02293,-18.56196 29.05886,-52.52311 46.22574,-69.68659c10.9433,-10.94114 13.11211,-31.53873 23.92164,-37.01488c11.88435,-6.02066 61.28876,36.5305 67.91279,36.11399c6.66402,-0.41903 -83.35447,63.71633 -77.48181,68.04276c16.72402,12.32071 29.05843,40.88682 46.02649,42.38184c38.58966,3.40005 64.52018,29.81838 87.50536,24.30825c32.5448,-7.80181 18.93612,-55.16297 15.79334,-53.686c-20.8005,9.77531 -50.38971,-4.83508 -63.70291,-2.13125c-13.23879,2.68872 -36.53393,8.84321 -34.04228,-0.97435c5.74043,-22.61833 60.19782,-77.12065 60.26844,-76.35576c0.02531,0.27409 -15.02906,-23.43483 -38.46877,-38.90634c-19.34935,-12.77165 -45.06471,-17.32243 -66.9853,-21.10771c-34.78168,-6.00616 -65.49243,30.04922 -66.02353,33.55797c-1.27128,8.39889 -3.42213,28.22072 -10.90693,44.43751c-7.4848,16.21679 -10.34163,29.34703 -26.47753,36.56079c-16.1359,7.21375 -22.61254,18.95284 -31.35678,8.01714c-8.74425,-10.9357 -8.45021,-22.23747 -20.7638,-34.39509c-12.31359,-12.15762 -13.13049,-14.75826 -21.41336,-24.99182c-1.17481,-1.45148 -0.49137,2.94918 -1.98458,2.1684c-9.03451,-4.72401 -24.88349,-4.81618 -30.62983,-15.83498c-6.69608,-12.83996 41.44789,-29.15309 40.56278,-43.51743c-0.88513,-14.36434 -43.92575,-137.3052 -24.55257,-132.9526z" data-paper-data="{&quot;index&quot;:null}" fill="#284300" stroke="#284300" stroke-width="10" stroke-linecap="round"/><path d="M364.3839,285.23429l12.75319,-8.62715l-9.37734,-11.25282" fill="none" stroke="#ff0000" stroke-width="5" stroke-linecap="round"/><path d="M220.77386,166.3014l10.12753,-2.62565l3.75093,11.6279" fill="none" stroke="#ff0000" stroke-width="5" stroke-linecap="round"/></g><path d="M461.69652,271.26487c0,23.15364 -18.77822,41.92698 -41.92698,41.92698h-359.54395c-23.15363,0 -41.92211,-18.77822 -41.92211,-41.92698v-182.53462c0,-23.15363 18.76847,-41.9221 41.92211,-41.9221h359.53908c23.16337,0 41.92698,18.76847 41.92698,41.9221v182.53463z" fill-opacity="0.50196" fill="#000000" stroke="#ffffff" stroke-width="5" stroke-linecap="butt"/><text transform="translate(66.13637,138.27273) scale(0.38637,0.38637)" font-size="40" xml:space="preserve" fill="#ffffff" fill-rule="nonzero" stroke="none" stroke-width="1" stroke-linecap="butt" stroke-linejoin="miter" stroke-miterlimit="10" stroke-dasharray="" stroke-dashoffset="0" font-family="Sans Serif" font-weight="normal" text-anchor="start" style="mix-blend-mode: normal"><tspan x="0" dy="0">你作为矩形家族的一员，出生在几何历20年7月6日</tspan><tspan x="0" dy="48px">。从小，你对几何镇充满了好奇，对这个多样的世</tspan><tspan x="0" dy="48px">界充满了探索的激情。作为一名年轻的几何探险者</tspan><tspan x="0" dy="48px">，你渴望探索这个充满谜题和挑战的几何世界。你</tspan><tspan x="0" dy="48px">希望揭开几何镇的秘密，发现隐藏在其中的宝藏和</tspan><tspan x="0" dy="48px">未知的奇迹。</tspan></text></g></g></svg>