<svg version="1.1" xmlns="http://www.w3.org/2000/svg" xmlns:xlink="http://www.w3.org/1999/xlink" width="515.00682" height="384.72035" viewBox="0,0,515.00682,384.72035"><g transform="translate(17.50341,12.36014)"><g data-paper-data="{&quot;isPaintingLayer&quot;:true}" fill-rule="nonzero" stroke-linecap="butt" stroke-linejoin="miter" stroke-miterlimit="10" stroke-dasharray="" stroke-dashoffset="0" style="mix-blend-mode: normal"><path d="M-17.50341,372.36021v-384.72033h515.00682v384.72033z" fill="#000000" stroke="none" stroke-width="0"/><text transform="translate(0.66625,12.24737) scale(0.3245,0.3245)" font-size="40" xml:space="preserve" data-paper-data="{&quot;index&quot;:null}" fill="#ffffff" fill-rule="nonzero" stroke="none" stroke-width="1" stroke-linecap="butt" stroke-linejoin="miter" stroke-miterlimit="10" stroke-dasharray="" stroke-dashoffset="0" font-family="YouYuan" font-weight="normal" text-anchor="start" style="mix-blend-mode: normal"><tspan x="0" dy="0">ka.city/cloudeshell</tspan><tspan x="0" dy="48px"> </tspan><tspan x="0" dy="48px">CS \\Users\GraphicTown&gt; Level 1</tspan><tspan x="0" dy="48px"> </tspan><tspan x="0" dy="48px">矩形家的花园的长度是12米，宽度是8米，其面积是（    ）平方米。</tspan><tspan x="0" dy="48px"> </tspan><tspan x="0" dy="48px">A 96</tspan><tspan x="0" dy="48px">B 80</tspan><tspan x="0" dy="48px">C 16</tspan><tspan x="0" dy="48px">D 20</tspan><tspan x="0" dy="48px"> </tspan><tspan x="0" dy="48px">Enter Answer:</tspan><tspan x="0" dy="48px"> </tspan><tspan x="0" dy="48px">CS \\Users\GraphicTown&gt; Level 2</tspan><tspan x="0" dy="48px"> </tspan><tspan x="0" dy="48px">一块矩形地毯的长为5.5米，宽为4米，求其面积是（    ）平方米。</tspan><tspan x="0" dy="48px"> </tspan><tspan x="0" dy="48px">A 20</tspan><tspan x="0" dy="48px">B 22</tspan><tspan x="0" dy="48px">C 24</tspan><tspan x="0" dy="48px">D 26</tspan><tspan x="0" dy="48px"> </tspan><tspan x="0" dy="48px">Enter Answer:</tspan></text><path d="M279.1439,314.89247c4.40594,-34.27089 15.60191,-121.35689 18.2365,-141.8496c1.06579,-8.2901 9.93799,-15.46053 17.48395,-14.4904c19.51918,2.50943 106.69476,13.71691 142.44065,18.31248c9.49964,1.22129 14.31593,10.15154 13.25014,18.44161c-2.61958,20.37596 -13.85349,107.75712 -18.31248,142.44065c-1.13769,8.84932 -8.21115,13.44824 -16.0193,12.44441c-19.78678,-2.54383 -107.70247,-13.84647 -143.62273,-18.46446c-9.50322,-1.22175 -14.54937,-8.33581 -13.45673,-16.83473z" fill="#000000" stroke="#ffffff" stroke-width="2.5"/><text transform="translate(306.80643,180.8912) rotate(7.32579) scale(0.38636,0.38636)" font-size="40" xml:space="preserve" data-paper-data="{&quot;index&quot;:null}" fill="#ffffff" fill-rule="nonzero" stroke="none" stroke-width="1" stroke-linecap="butt" stroke-linejoin="miter" stroke-miterlimit="10" stroke-dasharray="" stroke-dashoffset="0" font-family="YouYuan" font-weight="normal" text-anchor="start" style="mix-blend-mode: normal"><tspan x="0" dy="0">3.面积探险</tspan></text><path d="M443.9016,222.71308l-7.3049,56.81998c-0.55807,4.34089 -4.54146,7.4181 -8.8854,6.85963l-111.92149,-14.38887c-4.33938,-0.55788 -7.4179,-4.54298 -6.85983,-8.88388l7.3051,-56.82149c0.55807,-4.34089 4.5445,-7.41771 8.88388,-6.85983l111.92149,14.38887c4.34393,0.55847 7.41924,4.5447 6.86116,8.8856z" fill-opacity="0.50196" fill="#000000" stroke="#ffffff" stroke-width="2.5"/><text transform="translate(289.25658,279.20246) rotate(7.3256) scale(0.22728,0.22728)" font-size="40" xml:space="preserve" data-paper-data="{&quot;index&quot;:null}" fill="#ffffff" fill-rule="nonzero" stroke="none" stroke-width="1" stroke-linecap="butt" stroke-linejoin="miter" stroke-miterlimit="10" stroke-dasharray="" stroke-dashoffset="0" font-family="YouYuan" font-weight="normal" text-anchor="start" style="mix-blend-mode: normal"><tspan x="0" dy="0">你需要通过计算矩形的面积来解决一系列</tspan><tspan x="0" dy="48px">谜题和难题。找到适当的矩形面积来填补</tspan><tspan x="0" dy="48px">缺失的区域或触发机关。</tspan></text><path d="M338.91992,259.70416l4.91449,-38.22652l69.52607,8.93843l-4.91449,38.22652z" fill-opacity="0.50196" fill="#000000" stroke="#ffffff" stroke-width="2.5"/><text transform="translate(334.73614,222.28408) rotate(7.3256) scale(0.22728,0.22728)" font-size="40" xml:space="preserve" data-paper-data="{&quot;index&quot;:null}" fill="#ffffff" fill-rule="nonzero" stroke="none" stroke-width="1" stroke-linecap="butt" stroke-linejoin="miter" stroke-miterlimit="10" stroke-dasharray="" stroke-dashoffset="0" font-family="YouYuan" font-weight="normal" text-anchor="start" style="mix-blend-mode: normal"><tspan x="0" dy="0">A</tspan></text><text transform="translate(328.86922,260.47421) rotate(7.3256) scale(0.22728,0.22728)" font-size="40" xml:space="preserve" data-paper-data="{&quot;index&quot;:null}" fill="#ffffff" fill-rule="nonzero" stroke="none" stroke-width="1" stroke-linecap="butt" stroke-linejoin="miter" stroke-miterlimit="10" stroke-dasharray="" stroke-dashoffset="0" font-family="YouYuan" font-weight="normal" text-anchor="start" style="mix-blend-mode: normal"><tspan x="0" dy="0">B</tspan></text><text transform="translate(412.08478,275.17056) rotate(7.3256) scale(0.22728,0.22728)" font-size="40" xml:space="preserve" data-paper-data="{&quot;index&quot;:null}" fill="#ffffff" fill-rule="nonzero" stroke="none" stroke-width="1" stroke-linecap="butt" stroke-linejoin="miter" stroke-miterlimit="10" stroke-dasharray="" stroke-dashoffset="0" font-family="YouYuan" font-weight="normal" text-anchor="start" style="mix-blend-mode: normal"><tspan x="0" dy="0">C</tspan></text><text transform="translate(420.52182,232.52789) rotate(7.3256) scale(0.22728,0.22728)" font-size="40" xml:space="preserve" data-paper-data="{&quot;index&quot;:null}" fill="#ffffff" fill-rule="nonzero" stroke="none" stroke-width="1" stroke-linecap="butt" stroke-linejoin="miter" stroke-miterlimit="10" stroke-dasharray="" stroke-dashoffset="0" font-family="YouYuan" font-weight="normal" text-anchor="start" style="mix-blend-mode: normal"><tspan x="0" dy="0">D</tspan></text><text transform="translate(366.08893,249.644) rotate(7.32571) scale(0.5,0.5)" font-size="40" xml:space="preserve" fill="#ffffff" fill-rule="nonzero" stroke="none" stroke-width="1" stroke-linecap="butt" stroke-linejoin="miter" stroke-miterlimit="10" stroke-dasharray="" stroke-dashoffset="0" font-family="YouYuan" font-weight="normal" text-anchor="start" style="mix-blend-mode: normal"><tspan x="0" dy="0">S₁</tspan></text><path d="M-17.50341,372.36019v-384.72033h515.00682v384.72033z" fill-opacity="0.50196" fill="#000000" stroke="none" stroke-width="0"/><text transform="translate(37.2048,193.51969) scale(1.12664,1.12664)" font-size="40" xml:space="preserve" data-paper-data="{&quot;index&quot;:null}" fill="#ffffff" fill-rule="nonzero" stroke="none" stroke-width="1" stroke-linecap="butt" stroke-linejoin="miter" stroke-miterlimit="10" stroke-dasharray="" stroke-dashoffset="0" font-family="YouYuan" font-weight="normal" text-anchor="start" style="mix-blend-mode: normal"><tspan x="0" dy="0">《面积探险》已通关</tspan></text><text transform="translate(2.20519,352.51974) scale(0.54331,0.54331)" font-size="40" xml:space="preserve" data-paper-data="{&quot;index&quot;:null}" fill="#ffffff" fill-rule="nonzero" stroke="none" stroke-width="1" stroke-linecap="butt" stroke-linejoin="miter" stroke-miterlimit="10" stroke-dasharray="" stroke-dashoffset="0" font-family="YouYuan" font-weight="normal" text-anchor="start" style="mix-blend-mode: normal"><tspan x="0" dy="0">即将返回主页</tspan></text></g></g></svg>