<svg version="1.1" xmlns="http://www.w3.org/2000/svg" xmlns:xlink="http://www.w3.org/1999/xlink" width="177.10001" height="177.09997" viewBox="0,0,177.10001,177.09997"><g transform="translate(-151.45,-91.45002)"><g data-paper-data="{&quot;isPaintingLayer&quot;:true}" fill-rule="nonzero" stroke-linecap="butt" stroke-linejoin="miter" stroke-miterlimit="10" stroke-dasharray="" stroke-dashoffset="0" style="mix-blend-mode: normal"><path d="M152.7,252.31862c0,-34.55295 0,-122.35569 0,-143.01706c0,-8.35833 7.88545,-16.60154 15.49352,-16.60154c19.67983,0 107.57288,0 143.61297,0c9.57782,0 15.49352,8.24321 15.49352,16.60151c0,20.54366 0,108.64399 0,143.61297c0,8.92215 -6.4293,14.38549 -14.30171,14.38549c-19.94963,0 -108.58889,0 -144.80478,0c-9.58143,0 -15.49352,-6.41253 -15.49352,-14.9814z" fill="#000000" stroke="#ffffff" stroke-width="2.5"/><text transform="translate(163.04987,115.88389) scale(0.38636,0.38636)" font-size="40" xml:space="preserve" data-paper-data="{&quot;index&quot;:null}" fill="#ffffff" fill-rule="nonzero" stroke="none" stroke-width="1" stroke-linecap="butt" stroke-linejoin="miter" stroke-miterlimit="10" stroke-dasharray="" stroke-dashoffset="0" font-family="YouYuan" font-weight="normal" text-anchor="start" style="mix-blend-mode: normal"><tspan x="0" dy="0">2.形状迷宫</tspan></text><path d="M304.35872,139.88299v57.28762c0,4.37662 -3.55849,7.93664 -7.93818,7.93664h-112.84263c-4.37509,0 -7.93664,-3.56002 -7.93664,-7.93664v-57.28915c0,-4.37662 3.56155,-7.93664 7.93664,-7.93664h112.84263c4.37968,0 7.93818,3.56155 7.93818,7.93818z" fill-opacity="0.50196" fill="#000000" stroke="#ffffff" stroke-width="2.5"/><text transform="translate(158.1792,215.63046) scale(0.22728,0.22728)" font-size="40" xml:space="preserve" data-paper-data="{&quot;index&quot;:null}" fill="#ffffff" fill-rule="nonzero" stroke="none" stroke-width="1" stroke-linecap="butt" stroke-linejoin="miter" stroke-miterlimit="10" stroke-dasharray="" stroke-dashoffset="0" font-family="YouYuan" font-weight="normal" text-anchor="start" style="mix-blend-mode: normal"><tspan x="0" dy="0">你需要控制几何形状角色穿越一个迷宫，</tspan><tspan x="0" dy="48px">迷宫的墙壁和路径都由不同的几何形状构</tspan><tspan x="0" dy="48px">成。</tspan></text><g stroke-width="0.5"><path d="M213.85157,148.48396h15.01598l-7.53901,2.47845z" fill="#000000" stroke="#ffffff"/><path d="M229.64833,148.66294l-9.14116,11.91297l2.62318,-7.48988z" fill="#000000" stroke="#ffffff"/><path d="M225.54856,156.47498l-5.55357,13.95125l0.48555,-7.92108z" fill="#000000" stroke="#ffffff"/><path d="M245.76515,156.06619l-10.38732,10.84358l3.42534,-7.15866z" fill="#000000" stroke="#ffffff"/><path d="M246.67683,156.63026l6.39349,13.58687l-5.45252,-5.76623z" fill="#000000" stroke="#ffffff"/><path d="M228.92864,178.25417l5.46527,-13.98608l-0.43547,7.924z" fill="#000000" stroke="#ffffff"/><path d="M240.58727,180.27089l8.2515,-12.54562l-2.07209,7.66066z" fill="#000000" stroke="#ffffff"/><path d="M246.6028,177.91021l-9.09492,11.94831l2.59413,-7.49999z" fill="#000000" stroke="#ffffff"/><path d="M236.09211,190.69181l-12.61515,-8.14478l7.67797,2.00704z" fill="#000000" stroke="#ffffff"/><path d="M213.87587,179.53515l12.90289,7.68083l-7.74585,-1.72661z" fill="#000000" stroke="#ffffff"/><path d="M213.70592,177.317l4.61003,-14.29081l0.04422,7.93583z" fill="#000000" stroke="#ffffff"/><path d="M235.63182,140.58404l8.85877,12.12443l-6.44887,-4.62509z" fill="#000000" stroke="#ffffff"/><path d="M205.4243,153.32447l-1.69218,-14.92033l3.31224,7.21168z" fill="#000000" stroke="#ffffff"/><path d="M222.32228,140.32735l-15.01219,-0.33756l7.59282,-2.30834z" fill="#000000" stroke="#ffffff"/><path d="M219.31409,137.94574l14.99716,0.75156l-7.65361,2.09801z" fill="#000000" stroke="#ffffff"/><path d="M208.3985,148.89778l1.94172,14.88991l-3.43251,-7.15522z" fill="#000000" stroke="#ffffff"/><path d="M205.10403,176.55814l0.24967,-15.0139l2.35275,7.57918z" fill="#000000" stroke="#ffffff"/><path d="M206.5159,179.02428l3.04395,14.70422l-3.95525,-6.88007z" fill="#000000" stroke="#ffffff"/><path d="M227.21709,197.77799l-14.5122,-3.85691l7.92267,-0.45887z" fill="#000000" stroke="#ffffff"/><path d="M225.15258,194.45841l14.94298,1.47889l-7.74645,1.7239z" fill="#000000" stroke="#ffffff"/><path d="M254.7336,195.35162l-14.8037,2.51596l7.01716,-3.70659z" fill="#000000" stroke="#ffffff"/><path d="M268.78675,177.30596l7.11571,13.22294l-5.75505,-5.46431z" fill="#000000" stroke="#ffffff"/><path d="M276.80838,193.02948l-14.96355,-1.25373l7.71962,-1.84034z" fill="#000000" stroke="#ffffff"/><path d="M247.21727,192.58176l14.76414,-2.73857l-6.96056,3.81182z" fill="#000000" stroke="#ffffff"/><path d="M266.01184,164.09729l7.11571,13.22294l-5.75505,-5.46431z" fill="#000000" stroke="#ffffff"/><path d="M264.87388,164.80117l-4.36452,-14.36769l4.56272,6.49314z" fill="#000000" stroke="#ffffff"/><path d="M243.73351,147.37052l15.01585,-0.06208l-7.5287,2.50959z" fill="#000000" stroke="#ffffff"/><path d="M250.19682,155.93454c0,-0.72679 0.58918,-1.31597 1.31597,-1.31597c0.72679,0 1.31597,0.58918 1.31597,1.31597c0,0.72679 -0.58918,1.31597 -1.31597,1.31597c-0.72679,0 -1.31597,-0.58918 -1.31597,-1.31597z" fill="#ff0000" stroke="none"/></g></g></g></svg>