<svg version="1.1" xmlns="http://www.w3.org/2000/svg" xmlns:xlink="http://www.w3.org/1999/xlink" width="177.10001" height="177.09997" viewBox="0,0,177.10001,177.09997"><g transform="translate(-151.45001,-91.45003)"><g data-paper-data="{&quot;isPaintingLayer&quot;:true}" fill-rule="nonzero" stroke-linecap="butt" stroke-linejoin="miter" stroke-miterlimit="10" stroke-dasharray="" stroke-dashoffset="0" style="mix-blend-mode: normal"><path d="M152.70002,252.31864c0,-34.55295 0,-122.35569 0,-143.01706c0,-8.35833 7.88545,-16.60154 15.49352,-16.60154c19.67983,0 107.57288,0 143.61297,0c9.57782,0 15.49352,8.24321 15.49352,16.60151c0,20.54366 0,108.64399 0,143.61297c0,8.92215 -6.4293,14.38549 -14.30171,14.38549c-19.94963,0 -108.58889,0 -144.80478,0c-9.58143,0 -15.49352,-6.41253 -15.49352,-14.9814z" fill="#000000" stroke="#ffffff" stroke-width="2.5"/><text transform="translate(163.04987,115.8839) scale(0.38636,0.38636)" font-size="40" xml:space="preserve" data-paper-data="{&quot;index&quot;:null}" fill="#ffffff" fill-rule="nonzero" stroke="none" stroke-width="1" stroke-linecap="butt" stroke-linejoin="miter" stroke-miterlimit="10" stroke-dasharray="" stroke-dashoffset="0" font-family="YouYuan" font-weight="normal" text-anchor="start" style="mix-blend-mode: normal"><tspan x="0" dy="0">3.面积探险</tspan></text><path d="M304.35874,139.88301v57.28762c0,4.37662 -3.55849,7.93664 -7.93818,7.93664h-112.84263c-4.37509,0 -7.93664,-3.56002 -7.93664,-7.93664v-57.28915c0,-4.37662 3.56155,-7.93664 7.93664,-7.93664h112.84263c4.37968,0 7.93818,3.56155 7.93818,7.93818z" fill-opacity="0.50196" fill="#000000" stroke="#ffffff" stroke-width="2.5"/><text transform="translate(158.17922,215.63048) scale(0.22728,0.22728)" font-size="40" xml:space="preserve" data-paper-data="{&quot;index&quot;:null}" fill="#ffffff" fill-rule="nonzero" stroke="none" stroke-width="1" stroke-linecap="butt" stroke-linejoin="miter" stroke-miterlimit="10" stroke-dasharray="" stroke-dashoffset="0" font-family="YouYuan" font-weight="normal" text-anchor="start" style="mix-blend-mode: normal"><tspan x="0" dy="0">你需要通过计算矩形的面积来解决一系列</tspan><tspan x="0" dy="48px">谜题和难题。找到适当的矩形面积来填补</tspan><tspan x="0" dy="48px">缺失的区域或触发机关。</tspan></text><path d="M204.95087,189.95863v-38.54113h70.09829v38.54113z" fill-opacity="0.50196" fill="#000000" stroke="#ffffff" stroke-width="2.5"/><text transform="translate(196.02971,153.3775) scale(0.22728,0.22728)" font-size="40" xml:space="preserve" data-paper-data="{&quot;index&quot;:null}" fill="#ffffff" fill-rule="nonzero" stroke="none" stroke-width="1" stroke-linecap="butt" stroke-linejoin="miter" stroke-miterlimit="10" stroke-dasharray="" stroke-dashoffset="0" font-family="YouYuan" font-weight="normal" text-anchor="start" style="mix-blend-mode: normal"><tspan x="0" dy="0">A</tspan></text><text transform="translate(195.08041,192.00399) scale(0.22728,0.22728)" font-size="40" xml:space="preserve" data-paper-data="{&quot;index&quot;:null}" fill="#ffffff" fill-rule="nonzero" stroke="none" stroke-width="1" stroke-linecap="butt" stroke-linejoin="miter" stroke-miterlimit="10" stroke-dasharray="" stroke-dashoffset="0" font-family="YouYuan" font-weight="normal" text-anchor="start" style="mix-blend-mode: normal"><tspan x="0" dy="0">B</tspan></text><text transform="translate(279.49064,195.96933) scale(0.22728,0.22728)" font-size="40" xml:space="preserve" data-paper-data="{&quot;index&quot;:null}" fill="#ffffff" fill-rule="nonzero" stroke="none" stroke-width="1" stroke-linecap="butt" stroke-linejoin="miter" stroke-miterlimit="10" stroke-dasharray="" stroke-dashoffset="0" font-family="YouYuan" font-weight="normal" text-anchor="start" style="mix-blend-mode: normal"><tspan x="0" dy="0">C</tspan></text><text transform="translate(282.42133,152.59892) scale(0.22728,0.22728)" font-size="40" xml:space="preserve" data-paper-data="{&quot;index&quot;:null}" fill="#ffffff" fill-rule="nonzero" stroke="none" stroke-width="1" stroke-linecap="butt" stroke-linejoin="miter" stroke-miterlimit="10" stroke-dasharray="" stroke-dashoffset="0" font-family="YouYuan" font-weight="normal" text-anchor="start" style="mix-blend-mode: normal"><tspan x="0" dy="0">D</tspan></text><text transform="translate(230.6153,176.5162) scale(0.5,0.5)" font-size="40" xml:space="preserve" fill="#ffffff" fill-rule="nonzero" stroke="none" stroke-width="1" stroke-linecap="butt" stroke-linejoin="miter" stroke-miterlimit="10" stroke-dasharray="" stroke-dashoffset="0" font-family="YouYuan" font-weight="normal" text-anchor="start" style="mix-blend-mode: normal"><tspan x="0" dy="0">S₁</tspan></text></g></g></svg>