<svg version="1.1" xmlns="http://www.w3.org/2000/svg" xmlns:xlink="http://www.w3.org/1999/xlink" width="177.10001" height="177.09997" viewBox="0,0,177.10001,177.09997"><g transform="translate(-151.45,-91.45003)"><g data-paper-data="{&quot;isPaintingLayer&quot;:true}" fill-rule="nonzero" stroke-linejoin="miter" stroke-miterlimit="10" stroke-dasharray="" stroke-dashoffset="0" style="mix-blend-mode: normal"><path d="M152.7,252.31863c0,-34.55295 0,-122.35569 0,-143.01706c0,-8.35833 7.88545,-16.60154 15.49352,-16.60154c19.67983,0 107.57288,0 143.61297,0c9.57782,0 15.49352,8.24321 15.49352,16.60151c0,20.54366 0,108.64399 0,143.61297c0,8.92215 -6.4293,14.38549 -14.30171,14.38549c-19.94963,0 -108.58889,0 -144.80478,0c-9.58143,0 -15.49352,-6.41253 -15.49352,-14.9814z" fill="#000000" stroke="#ffffff" stroke-width="2.5" stroke-linecap="butt"/><text transform="translate(163.04987,115.88389) scale(0.38636,0.38636)" font-size="40" xml:space="preserve" data-paper-data="{&quot;index&quot;:null}" fill="#ffffff" fill-rule="nonzero" stroke="none" stroke-width="1" stroke-linecap="butt" stroke-linejoin="miter" stroke-miterlimit="10" stroke-dasharray="" stroke-dashoffset="0" font-family="YouYuan" font-weight="normal" text-anchor="start" style="mix-blend-mode: normal"><tspan x="0" dy="0">1.平衡之旅</tspan></text><path d="M304.35873,139.883v57.28762c0,4.37662 -3.55849,7.93664 -7.93818,7.93664h-112.84263c-4.37509,0 -7.93664,-3.56002 -7.93664,-7.93664v-57.28915c0,-4.37662 3.56155,-7.93664 7.93664,-7.93664h112.84263c4.37968,0 7.93818,3.56155 7.93818,7.93818z" fill-opacity="0.50196" fill="#000000" stroke="#ffffff" stroke-width="2.5" stroke-linecap="butt"/><text transform="translate(158.17921,215.63047) scale(0.22728,0.22728)" font-size="40" xml:space="preserve" data-paper-data="{&quot;index&quot;:null}" fill="#ffffff" fill-rule="nonzero" stroke="none" stroke-width="1" stroke-linecap="butt" stroke-linejoin="miter" stroke-miterlimit="10" stroke-dasharray="" stroke-dashoffset="0" font-family="YouYuan" font-weight="normal" text-anchor="start" style="mix-blend-mode: normal"><tspan x="0" dy="0">在这个关卡中，你需要需要平衡你的几何</tspan><tspan x="0" dy="48px">形状，作为一个矩形家族的一员，你需要</tspan><tspan x="0" dy="48px">使其通过各种悬崖、平台和障碍物。你需</tspan><tspan x="0" dy="48px">要控制形状的倾斜角度，使其保持平衡并</tspan><tspan x="0" dy="48px">避免坠落。</tspan></text><g stroke-width="2"><path d="M215.52456,187.83359h-13.98118" data-paper-data="{&quot;index&quot;:null}" fill="none" stroke="#ffffff" stroke-linecap="round"/><path d="M233.10633,153.36887h-26.40925" fill="none" stroke="#ffffff" stroke-linecap="round"/><path d="M232.75047,161.61375l-0.01738,33.87542" fill="none" stroke="#ffffff" stroke-linecap="round"/><path d="M209.15807,188.72571l0.01738,-33.87542" data-paper-data="{&quot;index&quot;:null}" fill="none" stroke="#ffffff" stroke-linecap="round"/><path d="M257.99128,143.1558h-52.81851" data-paper-data="{&quot;index&quot;:null}" fill="none" stroke="#ffffff" stroke-linecap="round"/><path d="M220.44568,152.86158l0.01738,33.87543" data-paper-data="{&quot;index&quot;:null}" fill="none" stroke="#ffffff" stroke-linecap="round"/><path d="M232.12626,189.41255h26.7898" data-paper-data="{&quot;index&quot;:null}" fill="none" stroke="#ffffff" stroke-linecap="round"/><path d="M241.88969,143.96711l0.01738,33.87543" data-paper-data="{&quot;index&quot;:null}" fill="none" stroke="#ffffff" stroke-linecap="round"/><path d="M215.08984,161.3456l0.01739,33.87543" data-paper-data="{&quot;index&quot;:null}" fill="none" stroke="#ffffff" stroke-linecap="round"/><path d="M202.24915,163.33336h13.10601" data-paper-data="{&quot;index&quot;:null}" fill="none" stroke="#ffffff" stroke-linecap="round"/><path d="M234.56977,150.74806h42.58585" data-paper-data="{&quot;index&quot;:null}" fill="none" stroke="#ffffff" stroke-linecap="round"/><path d="M241.17761,193.48071h35.76406" data-paper-data="{&quot;index&quot;:null}" fill="none" stroke="#ffffff" stroke-linecap="round"/><path d="M253.64205,150.23042l0.00371,-7.23785" data-paper-data="{&quot;index&quot;:null}" fill="none" stroke="#ffffff" stroke-linecap="round"/><path d="M275.28936,139.58168h-52.81851" data-paper-data="{&quot;index&quot;:null}" fill="none" stroke="#ffffff" stroke-linecap="round"/><path d="M260.57669,162.75527l0.01042,20.32066" data-paper-data="{&quot;index&quot;:null}" fill="none" stroke="#ffffff" stroke-linecap="round"/><path d="M248.56992,183.41493h-28.21138" data-paper-data="{&quot;index&quot;:null}" fill="none" stroke="#ffffff" stroke-linecap="round"/><path d="M238.57246,140.39299l-0.01738,33.87543" data-paper-data="{&quot;index&quot;:null}" fill="none" stroke="#ffffff" stroke-linecap="round"/><path d="M265.45061,157.77147l-0.01415,27.57403" data-paper-data="{&quot;index&quot;:null}" fill="none" stroke="#ffffff" stroke-linecap="round"/><path d="M245.76573,157.95227h32.69089" data-paper-data="{&quot;index&quot;:null}" fill="none" stroke="#ffffff" stroke-linecap="round"/><path d="M275.30098,165.46454l0.01555,30.30211" data-paper-data="{&quot;index&quot;:null}" fill="none" stroke="#ffffff" stroke-linecap="round"/><path d="M238.7944,168.2614h37.71314" data-paper-data="{&quot;index&quot;:null}" fill="none" stroke="#ffffff" stroke-linecap="round"/><path d="M246.99011,156.67115l-0.00252,-4.92809" data-paper-data="{&quot;index&quot;:null}" fill="none" stroke="#ffffff" stroke-linecap="round"/><path d="M241.53331,188.77529l0.00253,4.9281" data-paper-data="{&quot;index&quot;:null}" fill="none" stroke="#ffffff" stroke-linecap="round"/><path d="M212.23198,177.61378l-0.00253,-4.92809" data-paper-data="{&quot;index&quot;:null}" fill="none" stroke="#ffffff" stroke-linecap="round"/><path d="M207.8206,187.36464c0,-0.68618 0.55626,-1.24244 1.24244,-1.24244c0.68618,0 1.24244,0.55626 1.24244,1.24244c0,0.68618 -0.55626,1.24244 -1.24244,1.24244c-0.68618,0 -1.24244,-0.55626 -1.24244,-1.24244z" fill="#ff0000" stroke="none" stroke-linecap="butt"/><path d="M205.36401,174.40188h13.20463" fill="none" stroke="#ffffff" stroke-linecap="round"/></g></g></g></svg>