<svg version="1.1" xmlns="http://www.w3.org/2000/svg" xmlns:xlink="http://www.w3.org/1999/xlink" width="519.51952" height="427.92793" viewBox="0,0,519.51952,427.92793"><g transform="translate(19.75976,33.96394)"><g data-paper-data="{&quot;isPaintingLayer&quot;:true}" fill-rule="nonzero" stroke-linejoin="miter" stroke-miterlimit="10" stroke-dasharray="" stroke-dashoffset="0" style="mix-blend-mode: normal"><path d="M-19.75976,393.964v-427.92793h519.51952v427.92793z" fill="#000000" stroke="none" stroke-width="NaN" stroke-linecap="butt"/><path d="M139.67611,181.94374l-85.24881,-56.19145l114.17088,12.31339z" fill="#000000" stroke="#ffffff" stroke-width="5" stroke-linecap="butt"/><path d="M56.26418,219.90437l76.8655,-30.80758l-61.00866,70.3707z" fill="#000000" stroke="#ffffff" stroke-width="5" stroke-linecap="butt"/><path d="M64.16588,254.83692l26.21729,79.02614l-33.47953,-35.57631z" fill="#000000" stroke="#ffffff" stroke-width="5" stroke-linecap="butt"/><path d="M135.62356,280.05422l-26.0038,98.73521l-24.81579,-112.11952z" fill="#000000" stroke="#ffffff" stroke-width="5" stroke-linecap="butt"/><path d="M379.36845,117.25071l-26.0038,98.73521l-24.81579,-112.11952z" fill="#000000" stroke="#ffffff" stroke-width="5" stroke-linecap="butt"/><path d="M358.86437,270.8455l-85.24881,-56.19145l114.17088,12.31339z" fill="#000000" stroke="#ffffff" stroke-width="5" stroke-linecap="butt"/><path d="M152.38552,51.10568l26.21729,79.02614l-33.47952,-35.57631z" fill="#000000" stroke="#ffffff" stroke-width="5" stroke-linecap="butt"/><g fill="#000000" stroke="#fff700" stroke-width="3.5" stroke-linecap="butt"><path d="M190.93238,252.98749l-17.96541,-17.5151l34.7352,0.31417z"/><path d="M241.82823,253.5744l-17.96541,-17.5151l34.7352,0.31417z"/><path d="M141.35603,252.39611l-17.96541,-17.5151l34.7352,0.31417z"/></g><g fill="#000000" stroke="#fff700" stroke-width="3.5" stroke-linecap="butt"><path d="M294.19363,115.73681l-17.96541,-17.5151l34.7352,0.31417z"/><path d="M244.91296,114.99983l-17.96541,-17.5151l34.7352,0.31417z"/><path d="M193.86707,113.38024l-17.96541,-17.5151l34.7352,0.31417z"/></g><path d="M44.3395,349.48731l-26.38177,-17.50354l32.22053,-0.48665l-23.92077,18.40908l5.9428,-32.79593z" fill="#ff0000" stroke="#ff0000" stroke-width="3.5" stroke-linecap="round"/><text transform="translate(306.80643,180.89123) rotate(7.32579) scale(0.38636,0.38636)" font-size="40" xml:space="preserve" data-paper-data="{&quot;index&quot;:null}" fill="#ffffff" fill-rule="nonzero" stroke="none" stroke-width="1" stroke-linecap="butt" stroke-linejoin="miter" stroke-miterlimit="10" stroke-dasharray="" stroke-dashoffset="0" font-family="YouYuan" font-weight="normal" text-anchor="start" style="mix-blend-mode: normal"><tspan x="0" dy="0">3.面积探险</tspan></text><text transform="translate(334.73614,222.28411) rotate(7.3256) scale(0.22728,0.22728)" font-size="40" xml:space="preserve" data-paper-data="{&quot;index&quot;:null}" fill="#ffffff" fill-rule="nonzero" stroke="none" stroke-width="1" stroke-linecap="butt" stroke-linejoin="miter" stroke-miterlimit="10" stroke-dasharray="" stroke-dashoffset="0" font-family="YouYuan" font-weight="normal" text-anchor="start" style="mix-blend-mode: normal"><tspan x="0" dy="0">A</tspan></text><path d="M-17.50341,372.36017v-384.72033h515.00682v384.72033z" fill-opacity="0.50196" fill="#000000" stroke="none" stroke-width="0" stroke-linecap="butt"/><text transform="translate(25.9384,139.44096) scale(1.12664,1.12664)" font-size="40" xml:space="preserve" data-paper-data="{&quot;index&quot;:null}" fill="#ffffff" fill-rule="nonzero" stroke="none" stroke-width="1" stroke-linecap="butt" stroke-linejoin="miter" stroke-miterlimit="10" stroke-dasharray="" stroke-dashoffset="0" font-family="YouYuan" font-weight="normal" text-anchor="start" style="mix-blend-mode: normal"><tspan x="0" dy="0">《三角封锁：</tspan><tspan x="0" dy="48px">     通往庆典之路》</tspan><tspan x="0" dy="48px"> </tspan></text><text transform="translate(2.20519,352.51975) scale(0.54331,0.54331)" font-size="40" xml:space="preserve" data-paper-data="{&quot;index&quot;:null}" fill="#ffffff" fill-rule="nonzero" stroke="none" stroke-width="1" stroke-linecap="butt" stroke-linejoin="miter" stroke-miterlimit="10" stroke-dasharray="" stroke-dashoffset="0" font-family="YouYuan" font-weight="normal" text-anchor="start" style="mix-blend-mode: normal"><tspan x="0" dy="0">即将返回主页</tspan></text><text transform="translate(172.4016,139.44096) scale(1.12664,1.12664)" font-size="40" xml:space="preserve" data-paper-data="{&quot;index&quot;:null}" fill="#ffffff" fill-rule="nonzero" stroke="none" stroke-width="1" stroke-linecap="butt" stroke-linejoin="miter" stroke-miterlimit="10" stroke-dasharray="" stroke-dashoffset="0" font-family="YouYuan" font-weight="normal" text-anchor="start" style="mix-blend-mode: normal"><tspan x="0" dy="0"> </tspan><tspan x="0" dy="48px"> </tspan><tspan x="0" dy="48px">未通关</tspan></text></g></g></svg>