<svg version="1.1" xmlns="http://www.w3.org/2000/svg" xmlns:xlink="http://www.w3.org/1999/xlink" width="598.00165" height="499.17876" viewBox="0,0,598.00165,499.17876"><g transform="translate(59.00081,69.58938)"><g data-paper-data="{&quot;isPaintingLayer&quot;:true}" fill-rule="nonzero" stroke-linejoin="miter" stroke-miterlimit="10" stroke-dasharray="" stroke-dashoffset="0" style="mix-blend-mode: normal"><path d="M-58.0008,428.58938v-497.17876h596.00165v497.17876z" fill="#000000" stroke="#000000" stroke-width="2" stroke-linecap="butt"/><path d="M1.57111,304.0397h86.16485" data-paper-data="{&quot;index&quot;:null}" fill="none" stroke="#ffffff" stroke-width="5" stroke-linecap="round"/><path d="M196.09086,91.63663h-162.75797" fill="none" stroke="#ffffff" stroke-width="5" stroke-linecap="round"/><path d="M193.89769,142.44911l-0.10713,208.77133" fill="none" stroke="#ffffff" stroke-width="5" stroke-linecap="round"/><path d="M48.49981,309.5378l0.10713,-208.77133" data-paper-data="{&quot;index&quot;:null}" fill="none" stroke="#ffffff" stroke-width="5" stroke-linecap="round"/><path d="M349.45468,28.69439h-325.51595" data-paper-data="{&quot;index&quot;:null}" fill="none" stroke="#ffffff" stroke-width="5" stroke-linecap="round"/><path d="M118.17151,297.28158l-0.10713,-208.77133" data-paper-data="{&quot;index&quot;:null}" fill="none" stroke="#ffffff" stroke-width="5" stroke-linecap="round"/><path d="M355.15394,313.77073h-165.10319" data-paper-data="{&quot;index&quot;:null}" fill="none" stroke="#ffffff" stroke-width="5" stroke-linecap="round"/><path d="M250.22191,33.69438l0.10713,208.77134" data-paper-data="{&quot;index&quot;:null}" fill="none" stroke="#ffffff" stroke-width="5" stroke-linecap="round"/><path d="M85.16388,349.56783l-0.10713,-208.77133" data-paper-data="{&quot;index&quot;:null}" fill="none" stroke="#ffffff" stroke-width="5" stroke-linecap="round"/><path d="M86.69192,153.04692h-80.7712" data-paper-data="{&quot;index&quot;:null}" fill="none" stroke="#ffffff" stroke-width="5" stroke-linecap="round"/><path d="M467.56279,75.48478h-262.45289" data-paper-data="{&quot;index&quot;:null}" fill="none" stroke="#ffffff" stroke-width="5" stroke-linecap="round"/><path d="M245.83347,338.84241h220.41083" data-paper-data="{&quot;index&quot;:null}" fill="none" stroke="#ffffff" stroke-width="5" stroke-linecap="round"/><path d="M322.67359,27.68839l-0.02289,44.60623" data-paper-data="{&quot;index&quot;:null}" fill="none" stroke="#ffffff" stroke-width="5" stroke-linecap="round"/><path d="M456.06129,6.66737h-325.51595" data-paper-data="{&quot;index&quot;:null}" fill="none" stroke="#ffffff" stroke-width="5" stroke-linecap="round"/><path d="M365.45259,274.71866l-0.06426,-125.23446" data-paper-data="{&quot;index&quot;:null}" fill="none" stroke="#ffffff" stroke-width="5" stroke-linecap="round"/><path d="M117.52733,276.80789h173.86429" data-paper-data="{&quot;index&quot;:null}" fill="none" stroke="#ffffff" stroke-width="5" stroke-linecap="round"/><path d="M229.77811,11.66737l-0.10713,208.77134" data-paper-data="{&quot;index&quot;:null}" fill="none" stroke="#ffffff" stroke-width="5" stroke-linecap="round"/><path d="M395.33865,288.70585l0.0872,-169.93638" data-paper-data="{&quot;index&quot;:null}" fill="none" stroke="#ffffff" stroke-width="5" stroke-linecap="round"/><path d="M274.10963,119.88372h201.47117" data-paper-data="{&quot;index&quot;:null}" fill="none" stroke="#ffffff" stroke-width="5" stroke-linecap="round"/><path d="M456.22865,352.93054l-0.09583,-186.74931" data-paper-data="{&quot;index&quot;:null}" fill="none" stroke="#ffffff" stroke-width="5" stroke-linecap="round"/><path d="M463.5688,183.41799h-232.42285" data-paper-data="{&quot;index&quot;:null}" fill="none" stroke="#ffffff" stroke-width="5" stroke-linecap="round"/><path d="M281.65538,111.98829l-0.01558,-30.37141" data-paper-data="{&quot;index&quot;:null}" fill="none" stroke="#ffffff" stroke-width="5" stroke-linecap="round"/><path d="M248.02563,309.84332l0.01558,30.37141" data-paper-data="{&quot;index&quot;:null}" fill="none" stroke="#ffffff" stroke-width="5" stroke-linecap="round"/><path d="M67.42843,210.6845l0.01559,30.37141" data-paper-data="{&quot;index&quot;:null}" fill="none" stroke="#ffffff" stroke-width="5" stroke-linecap="round"/><path d="M40.25704,301.14959c0,-4.22888 3.42818,-7.65706 7.65706,-7.65706c4.22888,0 7.65706,3.42818 7.65706,7.65706c0,4.22888 -3.42818,7.65706 -7.65706,7.65706c-4.22888,0 -7.65706,-3.42818 -7.65706,-7.65706z" fill="#ff0000" stroke="none" stroke-width="0.5" stroke-linecap="butt"/><path d="M106.49627,221.26125h-81.37899" fill="none" stroke="#ffffff" stroke-width="5" stroke-linecap="round"/><text transform="translate(122.32748,109.49355) scale(0.34091,0.34091)" font-size="40" xml:space="preserve" fill="#cccccc" fill-rule="nonzero" stroke="none" stroke-width="1" stroke-linecap="butt" stroke-linejoin="miter" stroke-miterlimit="10" stroke-dasharray="" stroke-dashoffset="0" font-family="YouYuan" font-weight="normal" text-anchor="start" style="mix-blend-mode: normal"><tspan x="0" dy="0">游戏任务：</tspan><tspan x="0" dy="46.15px">把矩形移动</tspan><tspan x="0" dy="46.15px">至红点处。</tspan><tspan x="0" dy="46.15px">W 前进</tspan><tspan x="0" dy="46.15px">S 后退</tspan><tspan x="0" dy="46.15px">A 向左转</tspan><tspan x="0" dy="46.15px">D 向右转</tspan></text></g></g></svg>