<svg version="1.1" xmlns="http://www.w3.org/2000/svg" xmlns:xlink="http://www.w3.org/1999/xlink" width="177.10001" height="177.09997" viewBox="0,0,177.10001,177.09997"><g transform="translate(-151.45,-91.45002)"><g data-paper-data="{&quot;isPaintingLayer&quot;:true}" fill-rule="nonzero" stroke-linecap="butt" stroke-linejoin="miter" stroke-miterlimit="10" stroke-dasharray="" stroke-dashoffset="0" style="mix-blend-mode: normal"><path d="M152.7,252.31862c0,-34.55295 0,-122.35569 0,-143.01706c0,-8.35833 7.88545,-16.60154 15.49352,-16.60154c19.67983,0 107.57288,0 143.61297,0c9.57782,0 15.49352,8.24321 15.49352,16.60151c0,20.54366 0,108.64399 0,143.61297c0,8.92215 -6.4293,14.38549 -14.30171,14.38549c-19.94963,0 -108.58889,0 -144.80478,0c-9.58143,0 -15.49352,-6.41253 -15.49352,-14.9814z" fill="#000000" stroke="#ccffff" stroke-width="2.5"/><text transform="translate(163.04987,115.88389) scale(0.38636,0.38636)" font-size="40" xml:space="preserve" data-paper-data="{&quot;index&quot;:null}" fill="#ccffff" fill-rule="nonzero" stroke="none" stroke-width="1" stroke-linecap="butt" stroke-linejoin="miter" stroke-miterlimit="10" stroke-dasharray="" stroke-dashoffset="0" font-family="YouYuan" font-weight="normal" text-anchor="start" style="mix-blend-mode: normal"><tspan x="0" dy="0">5.三角封锁：通往庆典</tspan><tspan x="0" dy="48px">之路</tspan></text><text transform="translate(158.1792,196.78411) scale(0.22728,0.22728)" font-size="40" xml:space="preserve" data-paper-data="{&quot;index&quot;:null}" fill="#ccffff" fill-rule="nonzero" stroke="none" stroke-width="1" stroke-linecap="butt" stroke-linejoin="miter" stroke-miterlimit="10" stroke-dasharray="" stroke-dashoffset="0" font-family="YouYuan" font-weight="normal" text-anchor="start" style="mix-blend-mode: normal"><tspan x="0" dy="0">几何历39年12月25日，几何镇建国40周年</tspan><tspan x="0" dy="48px">圣诞庆典在即。几何皇室欲邀各族形状代</tspan><tspan x="0" dy="48px">表同赴圆心市，为这个特殊的时刻共庆。</tspan><tspan x="0" dy="48px">矩形家族商议后，决定派你前往。但途径</tspan><tspan x="0" dy="48px">多边峰山脉时，被三角形家族的直角三角</tspan><tspan x="0" dy="48px">形封锁。解锁通路，抵达庆典，是此刻使</tspan><tspan x="0" dy="48px">命。</tspan></text></g></g></svg>