<svg version="1.1" xmlns="http://www.w3.org/2000/svg" xmlns:xlink="http://www.w3.org/1999/xlink" width="55.55556" height="24.13336" viewBox="0,0,55.55556,24.13336"><g transform="translate(-192.24779,-215.71478)"><g data-paper-data="{&quot;isPaintingLayer&quot;:true}" fill-rule="nonzero" stroke-linejoin="miter" stroke-miterlimit="10" stroke-dasharray="" stroke-dashoffset="0" style="mix-blend-mode: normal"><path d="M237.49544,220.00312c0,-1.38071 1.11929,-2.5 2.5,-2.5c1.38071,0 2.5,1.11929 2.5,2.5c0,1.38071 -1.11929,2.5 -2.5,2.5c-1.38071,0 -2.5,-1.11929 -2.5,-2.5zM240.04037,221.25977c0.69036,0 1.25,-0.55964 1.25,-1.25c0,-0.69036 -0.55964,-1.25 -1.25,-1.25c-0.69036,0 -1.25,0.55964 -1.25,1.25c0,0.69036 0.55964,1.25 1.25,1.25z" fill="#cccccc" stroke="none" stroke-width="0.5" stroke-linecap="butt"/><path d="M235.99912,219.99242l2.79146,-0.0055" fill="none" stroke="#cccccc" stroke-width="0.5" stroke-linecap="round"/><path d="M241.29007,219.982l2.72028,-0.00536" fill="none" stroke="#cccccc" stroke-width="0.5" stroke-linecap="round"/><path d="M239.9915,223.97596l0.00897,-2.71681" fill="none" stroke="#cccccc" stroke-width="0.5" stroke-linecap="round"/><path d="M240.00873,218.76017l0.00923,-2.79539" fill="none" stroke="#cccccc" stroke-width="0.5" stroke-linecap="round"/><path d="M237.16747,222.79798l1.95745,-1.93704" fill="none" stroke="#cccccc" stroke-width="0.5" stroke-linecap="round"/><path d="M240.90107,219.1033l1.9608,-1.94036" fill="none" stroke="#cccccc" stroke-width="0.5" stroke-linecap="round"/><path d="M242.8072,222.83238l-1.89079,-1.93096" fill="none" stroke="#cccccc" stroke-width="0.5" stroke-linecap="round"/><path d="M239.16733,219.11518l-1.96507,-2.00682" fill="none" stroke="#cccccc" stroke-width="0.5" stroke-linecap="round"/><path d="M192.2478,239.84815v-20.00865h55.55556v20.00865z" fill-opacity="0.01176" fill="#cccccc" stroke="none" stroke-width="0" stroke-linecap="butt"/><g stroke-width="0.5"><path d="M236.87825,229.86102c0,-1.72096 1.39512,-3.11607 3.11607,-3.11607c1.72096,0 3.11607,1.39512 3.11607,3.11607c0,1.72096 -1.39512,3.11607 -3.11607,3.11607c-1.72096,0 -3.11607,-1.39512 -3.11607,-3.11607zM240.05032,231.42735c0.86048,0 1.55803,-0.69755 1.55803,-1.55803c0,-0.86048 -0.69755,-1.55803 -1.55803,-1.55803c-0.86048,0 -1.55803,0.69755 -1.55803,1.55803c0,0.86048 0.69755,1.55803 1.55803,1.55803z" fill="#cccccc" stroke="none" stroke-linecap="butt"/><path d="M235.01319,229.84771l3.47934,-0.00686" fill="none" stroke="#cccccc" stroke-linecap="round"/><path d="M244.99862,229.82802l-3.39063,0.00668" fill="none" stroke="#cccccc" stroke-linecap="round"/><path d="M240.0006,231.42659l-0.01118,3.3863" fill="none" stroke="#cccccc" stroke-linecap="round"/><path d="M240.01088,228.31178l0.01151,-3.48426" fill="none" stroke="#cccccc" stroke-linecap="round"/><path d="M238.90929,230.93023l-2.43982,2.41438" fill="none" stroke="#cccccc" stroke-linecap="round"/><path d="M241.12312,228.73947l2.444,-2.41852" fill="none" stroke="#cccccc" stroke-linecap="round"/><path d="M243.49899,233.38749l-2.35673,-2.4068" fill="none" stroke="#cccccc" stroke-linecap="round"/><path d="M238.96214,228.75427l-2.44932,-2.50136" fill="none" stroke="#cccccc" stroke-linecap="round"/></g><text transform="translate(194.16098,234.2172) scale(0.38636,0.38636)" font-size="40" xml:space="preserve" data-paper-data="{&quot;index&quot;:null}" fill="#cccccc" fill-rule="nonzero" stroke="none" stroke-width="1" stroke-linecap="butt" stroke-linejoin="miter" stroke-miterlimit="10" stroke-dasharray="" stroke-dashoffset="0" font-family="YouYuan" font-weight="normal" text-anchor="start" style="mix-blend-mode: normal"><tspan x="0" dy="0">设置</tspan></text></g></g></svg>