<svg version="1.1" xmlns="http://www.w3.org/2000/svg" xmlns:xlink="http://www.w3.org/1999/xlink" width="519.51952" height="427.92793" viewBox="0,0,519.51952,427.92793"><g transform="translate(19.75976,33.96393)"><g data-paper-data="{&quot;isPaintingLayer&quot;:true}" fill-rule="nonzero" stroke-linejoin="miter" stroke-miterlimit="10" stroke-dasharray="" stroke-dashoffset="0" style="mix-blend-mode: normal"><path d="M-19.75976,393.964v-427.92793h519.51952v427.92793z" fill="#000000" stroke="none" stroke-width="NaN" stroke-linecap="butt"/><path d="M139.67611,181.94374l-85.24881,-56.19145l114.17088,12.31339z" fill="#000000" stroke="#ffffff" stroke-width="5" stroke-linecap="butt"/><path d="M56.26418,219.90435l76.8655,-30.80758l-61.00866,70.3707z" fill="#000000" stroke="#ffffff" stroke-width="5" stroke-linecap="butt"/><path d="M64.16588,254.83691l26.21729,79.02614l-33.47953,-35.57631z" fill="#000000" stroke="#ffffff" stroke-width="5" stroke-linecap="butt"/><path d="M135.62356,280.05422l-26.0038,98.73521l-24.81579,-112.11952z" fill="#000000" stroke="#ffffff" stroke-width="5" stroke-linecap="butt"/><path d="M379.36845,117.25071l-26.0038,98.73521l-24.81579,-112.11952z" fill="#000000" stroke="#ffffff" stroke-width="5" stroke-linecap="butt"/><path d="M358.86437,270.84548l-85.24881,-56.19145l114.17088,12.31339z" fill="#000000" stroke="#ffffff" stroke-width="5" stroke-linecap="butt"/><path d="M152.38552,51.10568l26.21729,79.02614l-33.47952,-35.57631z" fill="#000000" stroke="#ffffff" stroke-width="5" stroke-linecap="butt"/><g fill="#000000" stroke="#fff700" stroke-width="3.5" stroke-linecap="butt"><path d="M409.66142,137.64764l-17.96541,-17.5151l34.7352,0.31417z"/><path d="M462.7638,138.23457l-17.96541,-17.5151l34.7352,0.31417z"/></g><g fill="#000000" stroke="#fff700" stroke-width="3.5" stroke-linecap="butt"><path d="M416.87236,256.50907l-17.96541,-17.5151l34.7352,0.31417z"/><path d="M465.56168,257.09601l-17.96541,-17.5151l34.7352,0.31417z"/></g><g fill="#000000" stroke="#fff700" stroke-width="3.5" stroke-linecap="butt"><path d="M294.19363,115.7368l-17.96541,-17.5151l34.7352,0.31417z"/><path d="M244.91296,114.99982l-17.96541,-17.5151l34.7352,0.31417z"/><path d="M193.86707,113.38023l-17.96541,-17.5151l34.7352,0.31417z"/></g><path d="M44.3395,349.48728l-26.38177,-17.50354l32.22053,-0.48665l-23.92077,18.40908l5.9428,-32.79593z" fill="#ff0000" stroke="#ff0000" stroke-width="3.5" stroke-linecap="round"/></g></g></svg>