<svg version="1.1" xmlns="http://www.w3.org/2000/svg" xmlns:xlink="http://www.w3.org/1999/xlink" width="509.00901" height="409.90991" viewBox="0,0,509.00901,409.90991"><g transform="translate(24.73643,17.45152)"><g data-paper-data="{&quot;isPaintingLayer&quot;:true}" fill-rule="nonzero" stroke-linejoin="miter" stroke-miterlimit="10" stroke-dasharray="" stroke-dashoffset="0" style="mix-blend-mode: normal"><path d="M-24.73643,392.45839v-409.90991h509.00901v409.90991z" fill="#111c00" stroke="none" stroke-width="0" stroke-linecap="butt"/><path d="M63.58177,156.88037c8.4892,-33.87714 35.62842,-73.81221 57.49338,-61.05765c21.86496,12.75456 37.24321,-34.01243 52.11623,-13.3353c14.87302,20.67712 49.03536,1.41469 58.55856,22.52252c9.52321,21.10783 -36.38395,18.40398 -27.02702,47.36592c9.35694,28.96194 48.29735,27.84357 58.55856,50.23167c10.26121,22.3881 15.08885,38.91742 -9.00901,58.55856c-24.09786,19.64115 -46.98452,13.7412 -78.38125,12.66956c-31.39673,-1.07164 -64.23685,-13.37453 -78.43655,-18.02211c-14.1997,-4.64758 -32.37051,-15.6272 -33.65775,-16.43173c-7.12215,-4.45135 -8.70435,-48.62431 -0.21515,-82.50145z" fill="#284300" stroke="#284300" stroke-width="10" stroke-linecap="round"/><path d="M389.85416,89.93497c4.82646,19.26058 3.92692,44.37477 -0.12232,46.90554c-0.73185,0.4574 -11.06272,6.69979 -19.13585,9.34213c-8.07313,2.64234 -26.74411,9.63706 -44.59447,10.24633c-17.85036,0.60927 -30.86239,3.96363 -44.56304,-7.20318c-13.70065,-11.16681 -10.95593,-20.56443 -5.122,-33.293c5.83393,-12.72857 27.97319,-12.09274 33.293,-28.55882c5.31981,-16.46608 -20.78035,-14.92883 -15.366,-26.92952c5.41435,-12.00069 24.83707,-1.04919 33.29301,-12.805c8.45594,-11.75581 17.19912,14.83318 29.63027,7.58168c12.43115,-7.25151 27.86094,15.45326 32.6874,34.71385z" data-paper-data="{&quot;index&quot;:null}" fill="#284300" stroke="#284300" stroke-width="10" stroke-linecap="round"/><text transform="translate(189.2209,150.84222) scale(0.80068,0.80068)" font-size="40" xml:space="preserve" fill="#ff0000" fill-rule="nonzero" stroke="none" stroke-width="1" stroke-linecap="butt" stroke-linejoin="miter" stroke-miterlimit="10" stroke-dasharray="" stroke-dashoffset="0" font-family="Marker" font-weight="normal" text-anchor="start" style="mix-blend-mode: normal"><tspan x="0" dy="0">x</tspan></text><text transform="translate(85.65956,181.8793) scale(0.80068,0.80068)" font-size="40" xml:space="preserve" fill="#ff0000" fill-rule="nonzero" stroke="none" stroke-width="1" stroke-linecap="butt" stroke-linejoin="miter" stroke-miterlimit="10" stroke-dasharray="" stroke-dashoffset="0" font-family="Marker" font-weight="normal" text-anchor="start" style="mix-blend-mode: normal"><tspan x="0" dy="0">x</tspan></text><text transform="translate(358.95224,225.34084) scale(0.80068,0.80068)" font-size="40" xml:space="preserve" fill="#ff0000" fill-rule="nonzero" stroke="none" stroke-width="1" stroke-linecap="butt" stroke-linejoin="miter" stroke-miterlimit="10" stroke-dasharray="" stroke-dashoffset="0" font-family="Marker" font-weight="normal" text-anchor="start" style="mix-blend-mode: normal"><tspan x="0" dy="0">x</tspan></text><text transform="translate(265.45318,334.46842) scale(0.80068,0.80068)" font-size="40" xml:space="preserve" fill="#ff0000" fill-rule="nonzero" stroke="none" stroke-width="1" stroke-linecap="butt" stroke-linejoin="miter" stroke-miterlimit="10" stroke-dasharray="" stroke-dashoffset="0" font-family="Marker" font-weight="normal" text-anchor="start" style="mix-blend-mode: normal"><tspan x="0" dy="0">x</tspan></text><text transform="translate(278.89596,152.78924) scale(0.80068,0.80068)" font-size="40" xml:space="preserve" fill="#ff0000" fill-rule="nonzero" stroke="none" stroke-width="1" stroke-linecap="butt" stroke-linejoin="miter" stroke-miterlimit="10" stroke-dasharray="" stroke-dashoffset="0" font-family="Marker" font-weight="normal" text-anchor="start" style="mix-blend-mode: normal"><tspan x="0" dy="0">x</tspan></text><text transform="translate(344.87156,102.44214) scale(0.80068,0.80068)" font-size="40" xml:space="preserve" fill="#ff0000" fill-rule="nonzero" stroke="none" stroke-width="1" stroke-linecap="butt" stroke-linejoin="miter" stroke-miterlimit="10" stroke-dasharray="" stroke-dashoffset="0" font-family="Marker" font-weight="normal" text-anchor="start" style="mix-blend-mode: normal"><tspan x="0" dy="0">x</tspan></text><path d="M89.39177,227.37208v-26.26642h25.32833v26.26642z" fill="#ff0000" stroke="none" stroke-width="0" stroke-linecap="butt"/><path d="M221.66194,179.52968c0,5.18091 -7.55992,9.38086 -16.88555,9.38086c-9.32563,0 -16.88555,-4.19996 -16.88555,-9.38086c0,-5.18091 7.55992,-9.38086 16.88555,-9.38086c9.32563,0 16.88555,4.19996 16.88555,9.38086z" fill="#ff0000" stroke="none" stroke-width="0" stroke-linecap="butt"/><path d="M246.99027,28.02874c0,5.95804 -5.03995,10.78799 -11.25704,10.78799c-6.21709,0 -11.25704,-4.82995 -11.25704,-10.78799c0,-5.95804 5.03995,-10.78799 11.25704,-10.78799c6.21709,0 11.25704,4.82995 11.25704,10.78799z" fill="#ff0000" stroke="none" stroke-width="0" stroke-linecap="butt"/><path d="M327.66569,153.26326l26.26642,-21.57598v21.57598z" fill="#ff0000" stroke="none" stroke-width="0" stroke-linecap="butt"/><path d="M369.59006,249.98637l0.88261,-14.35115l16.5022,-5.73698l8.38482,13.68991l-8.38482,12.5765z" fill="#ff0000" stroke="none" stroke-width="0" stroke-linecap="butt"/><path d="M294.5586,344.42063l0.88261,-14.35114l13.24063,-7.36777l12.95103,8.79754l-1.52117,14.34924l-13.06065,6.38121z" fill="#ff0000" stroke="none" stroke-width="0" stroke-linecap="butt"/><text transform="translate(188.21116,72.42339) scale(0.80068,0.80068)" font-size="40" xml:space="preserve" fill="#ff0000" fill-rule="nonzero" stroke="none" stroke-width="1" stroke-linecap="butt" stroke-linejoin="miter" stroke-miterlimit="10" stroke-dasharray="" stroke-dashoffset="0" font-family="Marker" font-weight="normal" text-anchor="start" style="mix-blend-mode: normal"><tspan x="0" dy="0">x</tspan></text><text transform="translate(146.30684,222.82676) scale(0.80068,0.80068)" font-size="40" xml:space="preserve" fill="#ff0000" fill-rule="nonzero" stroke="none" stroke-width="1" stroke-linecap="butt" stroke-linejoin="miter" stroke-miterlimit="10" stroke-dasharray="" stroke-dashoffset="0" font-family="Marker" font-weight="normal" text-anchor="start" style="mix-blend-mode: normal"><tspan x="0" dy="0">x</tspan></text><text transform="translate(162.51941,155.32928) rotate(-120.6882) scale(1.33333,1.33333)" font-size="40" xml:space="preserve" fill="#ff0000" fill-rule="nonzero" stroke="none" stroke-width="1" stroke-linecap="butt" stroke-linejoin="miter" stroke-miterlimit="10" stroke-dasharray="" stroke-dashoffset="0" font-family="Marker" font-weight="normal" text-anchor="start" style="mix-blend-mode: normal"><tspan x="0" dy="0">↑</tspan></text><text transform="translate(228.17999,41.80174) rotate(-130.90212) scale(0.77463,0.77463)" font-size="40" xml:space="preserve" fill="#ff0000" fill-rule="nonzero" stroke="none" stroke-width="1" stroke-linecap="butt" stroke-linejoin="miter" stroke-miterlimit="10" stroke-dasharray="" stroke-dashoffset="0" font-family="Marker" font-weight="normal" text-anchor="start" style="mix-blend-mode: normal"><tspan x="0" dy="0">↑</tspan></text><text transform="translate(288.10771,31.64509) rotate(116.04363) scale(1.19262,1.19262)" font-size="40" xml:space="preserve" fill="#ff0000" fill-rule="nonzero" stroke="none" stroke-width="1" stroke-linecap="butt" stroke-linejoin="miter" stroke-miterlimit="10" stroke-dasharray="" stroke-dashoffset="0" font-family="Marker" font-weight="normal" text-anchor="start" style="mix-blend-mode: normal"><tspan x="0" dy="0">↑</tspan></text><text transform="translate(258.53807,47.44956) rotate(138.27363) scale(1.35743,1.64522) skewX(-13.11006)" font-size="40" xml:space="preserve" fill="#ff0000" fill-rule="nonzero" stroke="none" stroke-width="1" stroke-linecap="butt" stroke-linejoin="miter" stroke-miterlimit="10" stroke-dasharray="" stroke-dashoffset="0" font-family="Marker" font-weight="normal" text-anchor="start" style="mix-blend-mode: normal"><tspan x="0" dy="0">↑</tspan></text><text transform="translate(200.54522,82.64538) rotate(168.20645) scale(1.33333,1.33333)" font-size="40" xml:space="preserve" fill="#ff0000" fill-rule="nonzero" stroke="none" stroke-width="1" stroke-linecap="butt" stroke-linejoin="miter" stroke-miterlimit="10" stroke-dasharray="" stroke-dashoffset="0" font-family="Marker" font-weight="normal" text-anchor="start" style="mix-blend-mode: normal"><tspan x="0" dy="0">↑</tspan></text><text transform="translate(191.90045,164.37729) rotate(-157.85518) scale(1.33333,1.33333)" font-size="40" xml:space="preserve" fill="#ff0000" fill-rule="nonzero" stroke="none" stroke-width="1" stroke-linecap="butt" stroke-linejoin="miter" stroke-miterlimit="10" stroke-dasharray="" stroke-dashoffset="0" font-family="Marker" font-weight="normal" text-anchor="start" style="mix-blend-mode: normal"><tspan x="0" dy="0">↑</tspan></text><text transform="translate(309.9976,164.07309) rotate(115.77071) scale(1.35743,1.64522) skewX(-13.11012)" font-size="40" xml:space="preserve" fill="#ff0000" fill-rule="nonzero" stroke="none" stroke-width="1" stroke-linecap="butt" stroke-linejoin="miter" stroke-miterlimit="10" stroke-dasharray="" stroke-dashoffset="0" font-family="Marker" font-weight="normal" text-anchor="start" style="mix-blend-mode: normal"><tspan x="0" dy="0">↑</tspan></text><text transform="translate(349.58228,261.20126) rotate(-145.16337) scale(1.35743,1.64522) skewX(-13.11007)" font-size="40" xml:space="preserve" fill="#ff0000" fill-rule="nonzero" stroke="none" stroke-width="1" stroke-linecap="butt" stroke-linejoin="miter" stroke-miterlimit="10" stroke-dasharray="" stroke-dashoffset="0" font-family="Marker" font-weight="normal" text-anchor="start" style="mix-blend-mode: normal"><tspan x="0" dy="0">↑</tspan></text><text transform="translate(180.01721,235.09218) rotate(121.9389) scale(1.35743,1.64522) skewX(-13.11007)" font-size="40" xml:space="preserve" fill="#ff0000" fill-rule="nonzero" stroke="none" stroke-width="1" stroke-linecap="butt" stroke-linejoin="miter" stroke-miterlimit="10" stroke-dasharray="" stroke-dashoffset="0" font-family="Marker" font-weight="normal" text-anchor="start" style="mix-blend-mode: normal"><tspan x="0" dy="0">↑</tspan></text><path d="M461.69652,271.26487c0,23.15364 -18.77822,41.92698 -41.92698,41.92698h-359.54395c-23.15363,0 -41.92211,-18.77822 -41.92211,-41.92698v-182.53462c0,-23.15363 18.76847,-41.9221 41.92211,-41.9221h359.53908c23.16337,0 41.92698,18.76847 41.92698,41.9221v182.53463z" fill-opacity="0.50196" fill="#000000" stroke="#ffffff" stroke-width="5" stroke-linecap="butt"/><text transform="translate(66.13636,138.27273) scale(0.38636,0.38636)" font-size="40" xml:space="preserve" fill="#ffffff" fill-rule="nonzero" stroke="none" stroke-width="1" stroke-linecap="butt" stroke-linejoin="miter" stroke-miterlimit="10" stroke-dasharray="" stroke-dashoffset="0" font-family="YouYuan" font-weight="normal" text-anchor="start" style="mix-blend-mode: normal"><tspan x="0" dy="0">100多年前，几何的各个部落散落在几何世界的大地</tspan><tspan x="0" dy="48px">上。其中最为强盛的圆形家族，以其庞大的实力统</tspan><tspan x="0" dy="48px">一了众多几何部落。在50多年前，他们建立了几何</tspan><tspan x="0" dy="48px">史上第一个允许多种形状共存的王朝，取名为几何</tspan><tspan x="0" dy="48px">镇。圆形家族成为了皇室家族，几何镇的建立被视</tspan><tspan x="0" dy="48px">为几何元年的开始。</tspan></text></g></g></svg>