<svg version="1.1" xmlns="http://www.w3.org/2000/svg" xmlns:xlink="http://www.w3.org/1999/xlink" width="177.10001" height="177.09997" viewBox="0,0,177.10001,177.09997"><defs><linearGradient x1="240" y1="157.6927" x2="240" y2="179.35937" gradientUnits="userSpaceOnUse" id="color-1"><stop offset="0" stop-color="#000000"/><stop offset="1" stop-color="#ffffff"/></linearGradient><linearGradient x1="273.65384" y1="157.6927" x2="273.65384" y2="179.35937" gradientUnits="userSpaceOnUse" id="color-2"><stop offset="0" stop-color="#ffffff"/><stop offset="1" stop-color="#000000"/></linearGradient></defs><g transform="translate(-151.44999,-91.45002)"><g data-paper-data="{&quot;isPaintingLayer&quot;:true}" fill-rule="nonzero" stroke-linecap="butt" stroke-linejoin="miter" stroke-miterlimit="10" stroke-dasharray="" stroke-dashoffset="0" style="mix-blend-mode: normal"><path d="M152.7,252.31862c0,-34.55295 0,-122.35569 0,-143.01706c0,-8.35833 7.88545,-16.60154 15.49352,-16.60154c19.67983,0 107.57288,0 143.61297,0c9.57782,0 15.49352,8.24321 15.49352,16.60151c0,20.54366 0,108.64399 0,143.61297c0,8.92215 -6.4293,14.38549 -14.30171,14.38549c-19.94963,0 -108.58889,0 -144.80478,0c-9.58143,0 -15.49352,-6.41253 -15.49352,-14.9814z" fill="#000000" stroke="#ffffff" stroke-width="2.5"/><text transform="translate(163.04987,115.88389) scale(0.38636,0.38636)" font-size="40" xml:space="preserve" data-paper-data="{&quot;index&quot;:null}" fill="#ffffff" fill-rule="nonzero" stroke="none" stroke-width="1" stroke-linecap="butt" stroke-linejoin="miter" stroke-miterlimit="10" stroke-dasharray="" stroke-dashoffset="0" font-family="YouYuan" font-weight="normal" text-anchor="start" style="mix-blend-mode: normal"><tspan x="0" dy="0">0.XXXX</tspan></text><path d="M304.35872,139.88299v57.28762c0,4.37662 -3.55849,7.93664 -7.93818,7.93664h-112.84263c-4.37509,0 -7.93664,-3.56002 -7.93664,-7.93664v-57.28915c0,-4.37662 3.56155,-7.93664 7.93664,-7.93664h112.84263c4.37968,0 7.93818,3.56155 7.93818,7.93818z" fill-opacity="0.50196" fill="#ffffff" stroke="#ffffff" stroke-width="2.5"/><path d="M190.70513,179.35937v-21.66666h98.58975v21.66666z" fill="url(#color-1)" stroke="none" stroke-width="0"/><path d="M190.70513,179.35937v-21.66667h21.66667v21.66667z" fill="#000000" stroke="#ffffff" stroke-width="2.5"/><path d="M258.01282,179.35937v-21.66666h31.28205v21.66666z" data-paper-data="{&quot;index&quot;:null}" fill="url(#color-2)" stroke="none" stroke-width="0"/><path d="M228.78206,179.35937v-21.66666h37.43589v21.66666z" fill="#000000" stroke="none" stroke-width="0"/><text transform="translate(158.1792,215.63046) scale(0.22728,0.22728)" font-size="40" xml:space="preserve" data-paper-data="{&quot;index&quot;:null}" fill="#ffffff" fill-rule="nonzero" stroke="none" stroke-width="1" stroke-linecap="butt" stroke-linejoin="miter" stroke-miterlimit="10" stroke-dasharray="" stroke-dashoffset="0" font-family="YouYuan" font-weight="normal" text-anchor="start" style="mix-blend-mode: normal"><tspan x="0" dy="0">？？？？？？？？？？？？？？？？？？</tspan></text></g></g></svg>