<svg version="1.1" xmlns="http://www.w3.org/2000/svg" xmlns:xlink="http://www.w3.org/1999/xlink" width="761.26126" height="513.51351" viewBox="0,0,761.26126,513.51351"><g transform="translate(140.63063,76.75676)"><g data-paper-data="{&quot;isPaintingLayer&quot;:true}" fill-rule="nonzero" stroke-linejoin="miter" stroke-miterlimit="10" stroke-dasharray="" stroke-dashoffset="0" style="mix-blend-mode: normal"><g><g><path d="M272.82013,199.76607c0,-34.55295 0,-122.35569 0,-143.01706c0,-8.35833 7.88545,-16.60154 15.49352,-16.60154c19.67983,0 107.57288,0 143.61297,0c9.57782,0 15.49352,8.24321 15.49352,16.60151c0,20.54366 0,108.64399 0,143.61297c0,8.92215 -6.4293,14.38549 -14.30171,14.38549c-19.94963,0 -108.58889,0 -144.80478,0c-9.58143,0 -15.49352,-6.41253 -15.49352,-14.9814z" fill="#000000" stroke="#ffffff" stroke-width="2.5" stroke-linecap="butt"/><text transform="translate(283.17,63.33133) scale(0.38636,0.38636)" font-size="40" xml:space="preserve" data-paper-data="{&quot;index&quot;:null}" fill="#ffffff" fill-rule="nonzero" stroke="none" stroke-width="1" stroke-linecap="butt" stroke-linejoin="miter" stroke-miterlimit="10" stroke-dasharray="" stroke-dashoffset="0" font-family="YouYuan" font-weight="normal" text-anchor="start" style="mix-blend-mode: normal"><tspan x="0" dy="0">1.平衡之旅</tspan></text><path d="M424.47886,87.33044v57.28762c0,4.37662 -3.55849,7.93664 -7.93818,7.93664h-112.84263c-4.37509,0 -7.93664,-3.56002 -7.93664,-7.93664v-57.28915c0,-4.37662 3.56155,-7.93664 7.93664,-7.93664h112.84263c4.37968,0 7.93818,3.56155 7.93818,7.93818z" fill-opacity="0.50196" fill="#000000" stroke="#ffffff" stroke-width="2.5" stroke-linecap="butt"/><text transform="translate(278.29934,163.07791) scale(0.22728,0.22728)" font-size="40" xml:space="preserve" data-paper-data="{&quot;index&quot;:null}" fill="#ffffff" fill-rule="nonzero" stroke="none" stroke-width="1" stroke-linecap="butt" stroke-linejoin="miter" stroke-miterlimit="10" stroke-dasharray="" stroke-dashoffset="0" font-family="YouYuan" font-weight="normal" text-anchor="start" style="mix-blend-mode: normal"><tspan x="0" dy="0">在这个关卡中，你需要需要平衡你的几何</tspan><tspan x="0" dy="48px">形状，作为一个矩形家族的一员，你需要</tspan><tspan x="0" dy="48px">使其通过各种悬崖、平台和障碍物。你需</tspan><tspan x="0" dy="48px">要控制形状的倾斜角度，使其保持平衡并</tspan><tspan x="0" dy="48px">避免坠落。</tspan></text><g stroke-width="2"><path d="M335.64469,135.28103h-13.98118" data-paper-data="{&quot;index&quot;:null}" fill="none" stroke="#ffffff" stroke-linecap="round"/><path d="M326.81721,100.81631h26.40925" fill="none" stroke="#ffffff" stroke-linecap="round"/><path d="M352.8706,109.06119l-0.01738,33.87542" fill="none" stroke="#ffffff" stroke-linecap="round"/><path d="M329.2782,136.17315l0.01738,-33.87542" data-paper-data="{&quot;index&quot;:null}" fill="none" stroke="#ffffff" stroke-linecap="round"/><path d="M378.11141,90.60324h-52.81851" data-paper-data="{&quot;index&quot;:null}" fill="none" stroke="#ffffff" stroke-linecap="round"/><path d="M340.56581,100.30902l0.01738,33.87543" data-paper-data="{&quot;index&quot;:null}" fill="none" stroke="#ffffff" stroke-linecap="round"/><path d="M352.24639,136.85999h26.7898" data-paper-data="{&quot;index&quot;:null}" fill="none" stroke="#ffffff" stroke-linecap="round"/><path d="M362.00982,91.41455l0.01738,33.87543" data-paper-data="{&quot;index&quot;:null}" fill="none" stroke="#ffffff" stroke-linecap="round"/><path d="M335.22736,142.66847l-0.01739,-33.87543" data-paper-data="{&quot;index&quot;:null}" fill="none" stroke="#ffffff" stroke-linecap="round"/><path d="M322.36928,110.7808h13.10601" data-paper-data="{&quot;index&quot;:null}" fill="none" stroke="#ffffff" stroke-linecap="round"/><path d="M397.27575,98.1955h-42.58585" data-paper-data="{&quot;index&quot;:null}" fill="none" stroke="#ffffff" stroke-linecap="round"/><path d="M397.0618,140.92815h-35.76406" data-paper-data="{&quot;index&quot;:null}" fill="none" stroke="#ffffff" stroke-linecap="round"/><path d="M373.76218,97.67786l0.00371,-7.23785" data-paper-data="{&quot;index&quot;:null}" fill="none" stroke="#ffffff" stroke-linecap="round"/><path d="M395.40949,87.02912h-52.81851" data-paper-data="{&quot;index&quot;:null}" fill="none" stroke="#ffffff" stroke-linecap="round"/><path d="M380.69682,110.20271l0.01042,20.32066" data-paper-data="{&quot;index&quot;:null}" fill="none" stroke="#ffffff" stroke-linecap="round"/><path d="M368.69005,130.86237h-28.21138" data-paper-data="{&quot;index&quot;:null}" fill="none" stroke="#ffffff" stroke-linecap="round"/><path d="M358.69259,87.84043l-0.01738,33.87543" data-paper-data="{&quot;index&quot;:null}" fill="none" stroke="#ffffff" stroke-linecap="round"/><path d="M385.57074,105.21891l-0.01415,27.57403" data-paper-data="{&quot;index&quot;:null}" fill="none" stroke="#ffffff" stroke-linecap="round"/><path d="M365.88586,105.39971h32.69089" data-paper-data="{&quot;index&quot;:null}" fill="none" stroke="#ffffff" stroke-linecap="round"/><path d="M395.43666,143.21409l-0.01555,-30.30211" data-paper-data="{&quot;index&quot;:null}" fill="none" stroke="#ffffff" stroke-linecap="round"/><path d="M358.91453,115.70884h37.71314" data-paper-data="{&quot;index&quot;:null}" fill="none" stroke="#ffffff" stroke-linecap="round"/><path d="M367.10772,99.1905l0.00252,4.92809" data-paper-data="{&quot;index&quot;:null}" fill="none" stroke="#ffffff" stroke-linecap="round"/><path d="M361.65344,136.22273l0.00253,4.9281" data-paper-data="{&quot;index&quot;:null}" fill="none" stroke="#ffffff" stroke-linecap="round"/><path d="M332.35211,125.06122l-0.00253,-4.92809" data-paper-data="{&quot;index&quot;:null}" fill="none" stroke="#ffffff" stroke-linecap="round"/><path d="M327.94073,134.81208c0,-0.68618 0.55626,-1.24244 1.24244,-1.24244c0.68618,0 1.24244,0.55626 1.24244,1.24244c0,0.68618 -0.55626,1.24244 -1.24244,1.24244c-0.68618,0 -1.24244,-0.55626 -1.24244,-1.24244z" fill="#ff0000" stroke="none" stroke-linecap="butt"/><path d="M325.48414,121.84932h13.20463" fill="none" stroke="#ffffff" stroke-linecap="round"/></g></g><text transform="translate(367.82993,212.4772) scale(3,3)" font-size="40" xml:space="preserve" fill="#ff0000" fill-rule="nonzero" stroke="none" stroke-width="1" stroke-linecap="butt" stroke-linejoin="miter" stroke-miterlimit="10" stroke-dasharray="" stroke-dashoffset="0" font-family="Sans Serif" font-weight="normal" text-anchor="start" style="mix-blend-mode: normal"><tspan x="0" dy="0">×</tspan></text></g><path d="M-140.63063,436.75676v-513.51351h761.26126v513.51351z" fill-opacity="0.50196" fill="#000000" stroke="none" stroke-width="NaN" stroke-linecap="butt"/><text transform="translate(37.20521,193.51965) scale(1.12664,1.12664)" font-size="40" xml:space="preserve" data-paper-data="{&quot;index&quot;:null}" fill="#ffffff" fill-rule="nonzero" stroke="none" stroke-width="1" stroke-linecap="butt" stroke-linejoin="miter" stroke-miterlimit="10" stroke-dasharray="" stroke-dashoffset="0" font-family="YouYuan" font-weight="normal" text-anchor="start" style="mix-blend-mode: normal"><tspan x="0" dy="0">《平衡之旅》未通关</tspan></text><text transform="translate(2.20521,352.51966) scale(0.54331,0.54331)" font-size="40" xml:space="preserve" data-paper-data="{&quot;index&quot;:null}" fill="#ffffff" fill-rule="nonzero" stroke="none" stroke-width="1" stroke-linecap="butt" stroke-linejoin="miter" stroke-miterlimit="10" stroke-dasharray="" stroke-dashoffset="0" font-family="YouYuan" font-weight="normal" text-anchor="start" style="mix-blend-mode: normal"><tspan x="0" dy="0">即将返回主页</tspan></text></g></g></svg>