<svg version="1.1" xmlns="http://www.w3.org/2000/svg" xmlns:xlink="http://www.w3.org/1999/xlink" width="598.00165" height="499.17876" viewBox="0,0,598.00165,499.17876"><g transform="translate(59.00083,69.58938)"><g data-paper-data="{&quot;isPaintingLayer&quot;:true}" fill-rule="nonzero" stroke-linecap="butt" stroke-linejoin="miter" stroke-miterlimit="10" stroke-dasharray="" stroke-dashoffset="0" style="mix-blend-mode: normal"><path d="M-58.00083,428.58938v-497.17876h596.00165v497.17876z" fill="#000000" stroke="#000000" stroke-width="2"/><path d="M74.34637,69.5306h87.37129l-43.86613,14.42097z" fill="#000000" stroke="#ffffff" stroke-width="2"/><path d="M166.2607,70.57202l-53.18834,69.31625l15.26313,-43.58025z" fill="#000000" stroke="#ffffff" stroke-width="2"/><path d="M142.40594,116.0268l-32.31375,81.17613l2.82519,-46.08926z" fill="#000000" stroke="#ffffff" stroke-width="2"/><path d="M260.03724,113.64823l-60.4392,63.09394l19.93055,-41.65303z" fill="#000000" stroke="#ffffff" stroke-width="2"/><path d="M265.34192,116.93029l37.20086,79.05592l-31.72576,-33.55112z" fill="#000000" stroke="#ffffff" stroke-width="2"/><path d="M162.07314,242.75017l31.79995,-81.37878l-2.53378,46.1062z" fill="#000000" stroke="#ffffff" stroke-width="2"/><path d="M229.90949,254.48455l48.01177,-72.99735l-12.05657,44.57399z" fill="#000000" stroke="#ffffff" stroke-width="2"/><path d="M264.91117,240.74881l-52.9193,69.52187l15.09411,-43.63908z" fill="#000000" stroke="#ffffff" stroke-width="2"/><path d="M203.75414,315.11924l-73.40196,-47.39087l44.67466,11.67805z" fill="#000000" stroke="#ffffff" stroke-width="2"/><path d="M74.48779,250.20365l75.07615,44.69133l-45.06964,-10.04637z" fill="#000000" stroke="#ffffff" stroke-width="2"/><path d="M73.49888,237.29721l26.8237,-83.15185l0.25728,46.17505z" fill="#000000" stroke="#ffffff" stroke-width="2"/><path d="M201.07595,23.5645l51.54522,70.54667l-37.52309,-26.91133z" fill="#000000" stroke="#ffffff" stroke-width="2"/><path d="M25.31183,97.6954l-9.84604,-86.81473l19.27247,41.96157z" fill="#000000" stroke="#ffffff" stroke-width="2"/><path d="M123.63367,22.07092l-87.34921,-1.96414l44.17923,-13.4312z" fill="#000000" stroke="#ffffff" stroke-width="2"/><path d="M106.13036,8.21342l87.26179,4.37297l-44.53293,12.20738z" fill="#000000" stroke="#ffffff" stroke-width="2"/><path d="M42.61739,71.93845l11.29803,86.63773l-19.97225,-41.63305z" fill="#000000" stroke="#ffffff" stroke-width="2"/><path d="M23.44832,232.88174l1.45272,-87.35921l13.68961,44.09984z" fill="#000000" stroke="#ffffff" stroke-width="2"/><path d="M31.66337,247.23109l17.71138,85.55728l-23.01384,-40.03205z" fill="#000000" stroke="#ffffff" stroke-width="2"/><path d="M152.1144,356.35058l-84.44,-22.44166l46.09851,-2.66996z" fill="#000000" stroke="#ffffff" stroke-width="2"/><path d="M140.10194,337.03542l86.94651,8.605l-45.07315,10.03059z" fill="#000000" stroke="#ffffff" stroke-width="2"/><path d="M312.22065,342.23261l-86.13613,14.63926l40.82973,-21.56698z" fill="#000000" stroke="#ffffff" stroke-width="2"/><path d="M393.98968,237.233l41.40315,76.93842l-33.48609,-31.79439z" fill="#000000" stroke="#ffffff" stroke-width="2"/><path d="M440.66396,328.7211l-87.06622,-7.2949l44.91701,-10.7081z" fill="#000000" stroke="#ffffff" stroke-width="2"/><path d="M268.48651,326.11602l85.90595,-15.93452l-40.50038,22.17929z" fill="#000000" stroke="#ffffff" stroke-width="2"/><path d="M377.8437,160.37761l41.40315,76.93842l-33.48609,-31.79439z" fill="#000000" stroke="#ffffff" stroke-width="2"/><path d="M371.22243,164.47315l-25.39522,-83.59919l26.54844,37.78071z" fill="#000000" stroke="#ffffff" stroke-width="2"/><path d="M248.21608,63.052l87.37054,-0.36124l-43.80613,14.60221z" fill="#000000" stroke="#ffffff" stroke-width="2"/><path d="M285.8232,112.8822c0,-4.22888 3.42818,-7.65706 7.65706,-7.65706c4.22888,0 7.65706,3.42818 7.65706,7.65706c0,4.22888 -3.42818,7.65706 -7.65706,7.65706c-4.22888,0 -7.65706,-3.42818 -7.65706,-7.65706z" fill="#ff0000" stroke="none" stroke-width="0.5"/><text transform="translate(229.17921,21.79713) scale(0.3245,0.3245)" font-size="40" xml:space="preserve" data-paper-data="{&quot;index&quot;:null}" fill="#ffffff" fill-rule="nonzero" stroke="none" stroke-width="1" stroke-linecap="butt" stroke-linejoin="miter" stroke-miterlimit="10" stroke-dasharray="" stroke-dashoffset="0" font-family="YouYuan" font-weight="normal" text-anchor="start" style="mix-blend-mode: normal"><tspan x="0" dy="0">游戏任务：把矩形移动至红点处。</tspan><tspan x="0" dy="48px">W 前进；S 后退；A 向左转；D 向右转</tspan></text></g></g></svg>