<svg version="1.1" xmlns="http://www.w3.org/2000/svg" xmlns:xlink="http://www.w3.org/1999/xlink" width="108.04348" height="136.66214" viewBox="0,0,108.04348,136.66214"><g transform="translate(-185.97826,-111.66893)"><g data-paper-data="{&quot;isPaintingLayer&quot;:true}" fill-rule="nonzero" stroke-linejoin="miter" stroke-miterlimit="10" stroke-dasharray="" stroke-dashoffset="0" style="mix-blend-mode: normal"><path d="M294.02174,111.66893v136.66214h-108.04348v-136.66214z" data-paper-data="{&quot;index&quot;:null}" fill="#9966ff" stroke="none" stroke-width="none" stroke-linecap="butt"/><path d="M192.2478,140.16051v-20.00865h55.55556v20.00865z" data-paper-data="{&quot;index&quot;:null}" fill-opacity="0.01176" fill="#cccccc" stroke="none" stroke-width="0" stroke-linecap="butt"/><g data-paper-data="{&quot;index&quot;:null}" stroke-width="0.5"><path d="M239.99432,127.02292c1.72095,0 3.11607,1.39511 3.11607,3.11607c0,1.72095 -1.39511,3.11607 -3.11607,3.11607c-1.72095,0 -3.11607,-1.39511 -3.11607,-3.11607c0,-1.72095 1.39511,-3.11607 3.11607,-3.11607zM238.49229,130.13069c0,0.86048 0.69755,1.55803 1.55803,1.55803c0.86048,0 1.55803,-0.69755 1.55803,-1.55803c0,-0.86048 -0.69755,-1.55803 -1.55803,-1.55803c-0.86048,0 -1.55803,0.69755 -1.55803,1.55803z" fill="#cccccc" stroke="none" stroke-linecap="butt"/><path d="M235.01319,130.1523l3.47934,0.00686" fill="none" stroke="#cccccc" stroke-linecap="round"/><path d="M244.99862,130.17199l-3.39063,-0.00668" fill="none" stroke="#cccccc" stroke-linecap="round"/><path d="M239.98942,125.18712l0.01118,3.3863" fill="none" stroke="#cccccc" stroke-linecap="round"/><path d="M240.01088,131.68822l0.01151,3.48426" fill="none" stroke="#cccccc" stroke-linecap="round"/><path d="M238.90929,129.06978l-2.43982,-2.41438" fill="none" stroke="#cccccc" stroke-linecap="round"/><path d="M243.56712,133.67906l-2.444,-2.41852" fill="none" stroke="#cccccc" stroke-linecap="round"/><path d="M243.49899,126.61252l-2.35673,2.4068" fill="none" stroke="#cccccc" stroke-linecap="round"/><path d="M236.51282,133.7471l2.44932,-2.50136" fill="none" stroke="#cccccc" stroke-linecap="round"/></g><text transform="translate(194.16098,125.78281) scale(0.38636,-0.38636)" font-size="40" xml:space="preserve" data-paper-data="{&quot;index&quot;:null}" fill="#cccccc" fill-rule="nonzero" stroke="none" stroke-width="1" stroke-linecap="butt" stroke-linejoin="miter" stroke-miterlimit="10" stroke-dasharray="" stroke-dashoffset="0" font-family="YouYuan" font-weight="normal" text-anchor="start" style="mix-blend-mode: normal"><tspan x="0" dy="0">设置</tspan></text></g></g></svg>