<svg version="1.1" xmlns="http://www.w3.org/2000/svg" xmlns:xlink="http://www.w3.org/1999/xlink" width="644.14414" height="456.45646" viewBox="0,0,644.14414,456.45646"><g transform="translate(82.07207,48.22823)"><g data-paper-data="{&quot;isPaintingLayer&quot;:true}" fill-rule="nonzero" stroke-linejoin="miter" stroke-miterlimit="10" stroke-dasharray="" stroke-dashoffset="0" style="mix-blend-mode: normal"><path d="M-82.07207,408.22823v-456.45646h644.14414v456.45646z" fill-opacity="0.6" fill="#000000" stroke="none" stroke-width="NaN" stroke-linecap="butt"/><g><path d="M371.44129,164.74564l-46.05674,72.29331c-0.91382,1.43439 -2.4014,2.50325 -3.91445,2.34595c-14.29752,2.18412 -28.33135,-1.11018 -40.09336,-8.60354c-11.76201,-7.49336 -20.49566,-19.10712 -24.74111,-32.70131c-3.43801,-11.0632 -10.24217,-20.64109 -19.99603,-26.8551c-8.89323,-5.66571 -19.32722,-8.27987 -30.15447,-7.11143l-30.52172,47.90866c-1.82765,2.86878 -5.5848,3.70169 -8.45358,1.87404c-2.86878,-1.82765 -3.70169,-5.5848 -1.87404,-8.45358l77.85781,-122.21012c1.46212,-2.29503 3.81033,-2.81559 5.79302,-2.7624c13.93199,-1.61036 27.39207,1.31841 38.8672,8.629c11.76201,7.49336 20.78254,19.28989 25.02799,32.88407c3.43801,11.0632 10.42493,20.35422 20.17879,26.56822c9.75386,6.214 21.12714,8.61994 32.6068,7.0605c2.45233,-0.05092 4.64324,0.94155 5.81621,2.89877c1.17297,1.95722 0.93702,4.22679 -0.34233,6.23493z" fill="#ff1919" stroke="none" stroke-width="1" stroke-linecap="butt"/><path d="M220.2947,132.19075l-102.35137,158.36299" fill="#ff0000" stroke="#ff0000" stroke-width="12.5" stroke-linecap="round"/></g><g stroke-linecap="butt"><path d="M461.69652,271.26487c0,23.15364 -18.77822,41.92698 -41.92698,41.92698h-359.54395c-23.15363,0 -41.92211,-18.77822 -41.92211,-41.92698v-182.53462c0,-23.15363 18.76847,-41.9221 41.92211,-41.9221h359.53908c23.16337,0 41.92698,18.76847 41.92698,41.9221v182.53463z" fill-opacity="0.50196" fill="#000000" stroke="#ffffff" stroke-width="5"/><text transform="translate(66.13637,138.27273) scale(0.38637,0.38637)" font-size="40" xml:space="preserve" fill="#ffffff" fill-rule="nonzero" stroke="none" stroke-width="1" stroke-linecap="butt" stroke-linejoin="miter" stroke-miterlimit="10" stroke-dasharray="" stroke-dashoffset="0" font-family="Sans Serif" font-weight="normal" text-anchor="start" style="mix-blend-mode: normal"><tspan x="0" dy="0">准备好迎接你的冒险了吗？在几何镇的街道上，</tspan><tspan x="0" dy="48px">你将遇到各种形状的居民，解决谜题、接受挑战，</tspan><tspan x="0" dy="48px">并发现令人惊叹的几何奇迹。带上你的矩形家族的</tspan><tspan x="0" dy="48px">荣耀，勇往直前吧！在这个充满魔力的几何世界中，</tspan><tspan x="0" dy="48px">你将成为传奇的几何英雄。</tspan></text></g></g></g></svg>